<?xml version="1.0" encoding="UTF-8" standalone="no"?>
<!-- Created with Inkscape (http://www.inkscape.org/) -->

<svg
   width="450.00134"
   height="329.22443"
   viewBox="0 0 119.06286 87.107298"
   version="1.1"
   id="svg1"
   xml:space="preserve"
   xmlns="http://www.w3.org/2000/svg"
   xmlns:svg="http://www.w3.org/2000/svg"><defs
     id="defs1" /><g
     id="layer1"
     transform="translate(-8.2019089,-24.179687)"><path
       style="fill:#21472e;fill-opacity:1;stroke:none;stroke-width:0.691024"
       d="m 28.063139,111.18998 c 0,-0.086 -0.09607,-0.15636 -0.21349,-0.15636 -0.11742,0 -0.21349,-0.066 -0.21349,-0.1465 0,-0.25435 0.557431,-0.73247 0.853961,-0.73247 0.158141,0 0.284654,-0.0977 0.284654,-0.21975 0,-0.1341 0.132727,-0.21973 0.340589,-0.21973 0.187324,0 0.377456,-0.0989 0.422514,-0.21974 0.04789,-0.12846 0.261158,-0.21975 0.513371,-0.21975 0.288625,0 0.431448,-0.0727 0.431448,-0.21973 0,-0.1465 0.142327,-0.21975 0.426981,-0.21975 0.284653,0 0.42698,-0.0733 0.42698,-0.21974 0,-0.16277 0.166048,-0.21974 0.640471,-0.21974 0.445832,0 0.640471,-0.0607 0.640471,-0.19968 0,-0.14093 0.281328,-0.22293 0.956071,-0.27868 0.525838,-0.0435 0.979506,-0.15135 1.008148,-0.2398 0.02932,-0.0905 0.391049,-0.16081 0.827482,-0.16081 0.557953,0 0.798378,-0.0617 0.857328,-0.21974 0.0467,-0.12526 0.258969,-0.21974 0.493677,-0.21974 0.271118,0 0.411754,-0.0751 0.411754,-0.21974 0,-0.1465 0.142326,-0.21974 0.42698,-0.21974 0.284653,0 0.42698,-0.0733 0.42698,-0.21974 0,-0.13836 0.135549,-0.21975 0.365983,-0.21975 0.201291,0 0.462055,-0.0989 0.579474,-0.21973 0.117419,-0.12086 0.330157,-0.21975 0.472751,-0.21975 0.142593,0 0.296125,-0.0989 0.341185,-0.21974 0.04506,-0.12086 0.236207,-0.21974 0.42478,-0.21974 0.188571,0 0.422587,-0.0989 0.520038,-0.21974 0.09745,-0.12086 0.289591,-0.21975 0.42698,-0.21975 0.13739,0 0.329531,-0.0989 0.426979,-0.21973 0.09745,-0.12086 0.265412,-0.21975 0.373246,-0.21975 0.107831,0 0.196063,-0.0989 0.196063,-0.21974 0,-0.12085 0.08172,-0.21974 0.181592,-0.21974 0.09988,0 0.30803,-0.29603 0.462563,-0.65784 0.154532,-0.36181 0.361028,-0.65846 0.458877,-0.65922 0.09785,-7e-4 0.177909,-0.0932 0.177909,-0.20546 0,-0.11224 0.09607,-0.24201 0.21349,-0.28839 0.117421,-0.0464 0.21349,-0.14984 0.21349,-0.22993 0,-0.0801 0.384283,-0.54607 0.853962,-1.03554 0.948176,-0.98814 1.141213,-1.570684 0.462562,-1.395921 -0.215269,0.05544 -0.442617,0.194427 -0.505216,0.308871 -0.0626,0.114444 -0.198863,0.20808 -0.302807,0.20808 -0.103939,0 -0.268724,0.0989 -0.366172,0.21974 -0.09745,0.12086 -0.297433,0.21974 -0.444408,0.21974 -0.146975,0 -0.267228,0.0989 -0.267228,0.21975 0,0.12085 -0.06405,0.21974 -0.142327,0.21974 -0.07828,0 -0.26583,0.11537 -0.416778,0.25636 -0.445007,0.41568 -0.704987,0.6226 -0.782248,0.6226 -0.03983,0 -0.286602,0.21426 -0.548371,0.47611 -0.822985,0.82327 -1.98746,1.72131 -2.231991,1.72131 -0.08145,0 -0.14809,0.0532 -0.14809,0.11831 0,0.15637 -0.95537,0.58506 -1.573239,0.70593 -0.269775,0.0528 -0.571263,0.16127 -0.669975,0.2411 -0.09871,0.0798 -0.739182,0.19559 -1.423269,0.25722 -2.633463,0.23728 -4.249948,0.46771 -4.681147,0.66728 -0.24667,0.11417 -0.582917,0.20757 -0.747218,0.20757 -0.164297,0 -0.298724,0.0629 -0.298724,0.13986 0,0.077 -0.234219,0.18508 -0.520485,0.24036 -0.286267,0.0553 -0.686561,0.1897 -0.889542,0.29873 -0.973443,0.52283 -3.144432,0.15542 -3.144432,-0.53216 0,-0.41673 -2.40099,-0.82624 -2.627965,-0.44824 -0.04559,0.076 -0.385611,0.18388 -0.755616,0.23993 -0.370004,0.0561 -0.799068,0.19169 -0.953476,0.30145 -0.154407,0.10975 -0.44262,0.20165 -0.64047,0.20422 -0.197852,0.003 -0.484054,0.10145 -0.636006,0.21973 -0.15195,0.11831 -0.482861,0.21509 -0.735355,0.21509 -0.252494,0 -0.480933,0.0674 -0.507642,0.14995 -0.02671,0.0824 -0.303698,0.19256 -0.615532,0.24465 -0.311835,0.0521 -0.652154,0.18238 -0.756264,0.28953 -0.104108,0.10717 -0.467592,0.19484 -0.807736,0.19484 -0.368305,0 -0.642381,0.0741 -0.677629,0.18311 -0.04125,0.12765 -0.637652,0.21245 -1.968855,0.27995 -1.050318,0.0533 -2.261928,0.16381 -2.692467,0.24567 -0.8806799,0.16745 -2.3276905,0.21595 -2.457478,0.0823 -0.1664176,-0.17128 0.2209792,-0.76986 0.5539232,-0.85587 0.1858774,-0.0481 0.3379596,-0.15197 0.3379596,-0.231 0,-0.079 0.098078,-0.14372 0.2179573,-0.14372 0.119876,0 0.254823,-0.0989 0.299881,-0.21973 0.04505,-0.12086 0.228337,-0.21974 0.4072869,-0.21974 0.178948,0 0.359611,-0.0919 0.401472,-0.20415 0.04186,-0.11229 0.352937,-0.24181 0.69128,-0.28784 0.338343,-0.046 1.303886,-0.17192 2.145652,-0.27976 0.841765,-0.10784 1.607128,-0.27497 1.700805,-0.37139 0.09368,-0.0964 0.319643,-0.17531 0.502143,-0.17531 0.182501,0 0.368684,-0.0989 0.413742,-0.21974 0.04507,-0.12085 0.23519,-0.21975 0.422515,-0.21975 0.187324,0 0.340589,-0.0676 0.340589,-0.15011 0,-0.0826 0.144106,-0.21616 0.320235,-0.29687 0.17613,-0.0807 0.799411,-0.4087 1.385068,-0.72885 0.585658,-0.32016 1.194105,-0.58419 1.352105,-0.58676 0.158,-0.003 0.411597,-0.10145 0.563548,-0.21974 0.20925,-0.16291 0.727178,-0.21635 2.134903,-0.2203 1.117343,-0.004 2.199217,-0.0899 2.712589,-0.21746 0.469678,-0.11672 1.11392,-0.21326 1.431647,-0.21451 0.317728,-0.002 0.70201,-0.0991 0.853962,-0.21737 0.15195,-0.1183 0.509599,-0.21719 0.794772,-0.21975 0.326359,-0.003 0.548857,-0.0861 0.600422,-0.22439 0.04506,-0.12086 0.23181,-0.21976 0.415007,-0.21976 0.183193,0 0.457404,-0.0968 0.609355,-0.21508 0.151951,-0.11829 0.380514,-0.21717 0.507919,-0.21973 0.127404,-0.003 0.311377,-0.10355 0.408827,-0.22441 0.110013,-0.13643 0.426859,-0.22081 0.835806,-0.22258 0.362245,-0.002 1.299097,-0.0984 2.081894,-0.2151 0.782798,-0.11673 1.660812,-0.21434 1.951145,-0.2169 0.563999,-0.005 1.525677,-0.42122 1.533709,-0.663872 0.0027,-0.08055 0.292455,-0.276624 0.643973,-0.435691 0.351517,-0.159048 0.639123,-0.365607 0.639123,-0.459018 0,-0.0934 0.112083,-0.21152 0.249072,-0.262487 0.34453,-0.128196 0.91006,-0.475749 1.015515,-0.624106 0.08342,-0.11734 0.745372,-0.501342 2.151257,-1.247939 0.352259,-0.187066 0.725105,-0.42252 0.828546,-0.523238 0.103443,-0.10071 0.311593,-0.183121 0.462561,-0.183121 0.15097,0 0.274488,-0.09888 0.274488,-0.219738 0,-0.120853 0.09607,-0.21974 0.21349,-0.21974 0.117421,0 0.21349,-0.09889 0.21349,-0.219746 0,-0.120853 0.06765,-0.219738 0.150334,-0.219738 0.196761,0 1.55759,-1.380108 1.55759,-1.579655 0,-0.08462 0.07217,-0.178623 0.160378,-0.208883 0.277407,-0.09517 0.332934,-1.488288 0.06833,-1.714322 -0.12579,-0.107449 -0.22871,-0.311071 -0.22871,-0.452484 0,-0.14141 -0.09607,-0.339183 -0.21349,-0.439485 -0.117419,-0.100305 -0.213491,-0.293539 -0.213491,-0.429416 0,-0.135883 -0.09404,-0.37502 -0.208963,-0.531417 -0.114931,-0.1564 -0.211395,-0.449165 -0.214367,-0.650599 -0.0029,-0.201427 -0.101081,-0.555059 -0.218017,-0.785841 -0.116937,-0.230781 -0.212613,-0.644865 -0.212613,-0.920181 0,-0.30983 -0.08136,-0.53272 -0.21349,-0.584912 -0.11742,-0.04637 -0.213491,-0.244141 -0.213491,-0.439478 0,-0.195339 -0.09029,-0.390823 -0.200645,-0.434413 -0.110352,-0.0436 -0.23967,-0.239282 -0.287366,-0.434884 -0.04769,-0.1956 -0.149546,-0.355635 -0.226334,-0.355635 -0.07679,0 -0.139616,-0.131847 -0.139616,-0.292988 0,-0.161146 -0.08912,-0.292987 -0.198061,-0.292987 -0.108934,0 -0.238248,-0.164809 -0.287366,-0.366236 -0.04912,-0.201434 -0.152131,-0.366236 -0.228919,-0.366236 -0.07679,0 -0.139615,-0.124793 -0.139615,-0.277315 0,-0.152523 -0.09607,-0.315259 -0.21349,-0.36164 -0.117421,-0.04637 -0.213491,-0.244141 -0.213491,-0.439479 0,-0.19534 -0.09607,-0.393111 -0.213491,-0.439485 -0.117419,-0.04637 -0.213489,-0.243144 -0.213489,-0.437266 0,-0.194117 -0.09607,-0.589604 -0.213491,-0.87886 -0.261341,-0.643787 -0.299415,-5.467007 -0.06056,-7.67179 0.218311,-2.015153 -0.161228,-3.264623 -0.991664,-3.264623 -0.148183,0 -0.306291,-0.09889 -0.351349,-0.219738 -0.04508,-0.120857 -0.228047,-0.222536 -0.406633,-0.225942 -0.180927,-0.0034 -0.479299,-0.198056 -0.673844,-0.439486 -0.192026,-0.2383 -0.405235,-0.43328 -0.473797,-0.43328 -0.06856,0 -0.412871,-0.29665 -0.76513,-0.659223 -0.35226,-0.362574 -0.731485,-0.659224 -0.842724,-0.659224 -0.11124,0 -0.202254,-0.09889 -0.202254,-0.219738 0,-0.12086 -0.08922,-0.219747 -0.198263,-0.219747 -0.109046,0 -0.23513,-0.09888 -0.280188,-0.219739 -0.04506,-0.120859 -0.205175,-0.219738 -0.355816,-0.219738 -0.150642,0 -0.310759,-0.09889 -0.355818,-0.219746 -0.04718,-0.126561 -0.25984,-0.219739 -0.50151,-0.219739 -0.230773,0 -0.44634,-0.08241 -0.479038,-0.183115 -0.07944,-0.244678 -6.469153,-0.266529 -6.623342,-0.02267 -0.0558,0.08826 -0.352459,0.201288 -0.659245,0.251173 -0.306784,0.04989 -0.594997,0.148778 -0.64047,0.219745 -0.04547,0.07097 -0.338366,0.170629 -0.650869,0.221474 -0.312504,0.05086 -0.590042,0.159925 -0.61675,0.242399 -0.06612,0.204141 -2.263072,0.197114 -2.329321,-0.0074 -0.02803,-0.08657 -0.46449,-0.195989 -0.969903,-0.243158 -0.505412,-0.04719 -1.004764,-0.174111 -1.109669,-0.282092 -0.104906,-0.107966 -0.378305,-0.196319 -0.607552,-0.196319 -0.229248,0 -0.416815,-0.05335 -0.416815,-0.118504 0,-0.06516 -0.35161,-0.279422 -0.781354,-0.476108 -0.429746,-0.196679 -0.782005,-0.407042 -0.782798,-0.467471 -7.61e-4,-0.0604 -0.129538,-0.109868 -0.286097,-0.109868 -0.15656,0 -0.284654,0.06593 -0.284654,0.14649 0,0.08057 -0.187566,0.146497 -0.416815,0.146497 -0.229248,0 -0.529052,0.115361 -0.666232,0.256364 -0.363899,0.374031 -4.454083,0.364557 -4.819115,-0.01125 -0.131024,-0.13486 -0.386915,-0.245197 -0.568649,-0.245197 -0.181733,0 -0.36729,-0.09889 -0.412348,-0.219745 -0.04505,-0.120853 -0.24405,-0.219739 -0.442207,-0.219739 -0.1981569,0 -0.3602849,-0.068 -0.3602849,-0.151092 0,-0.0831 -0.112083,-0.19355 -0.249071,-0.245453 -0.3244482,-0.122912 -0.8908149,-0.741152 -0.8850171,-0.966073 0.013563,-0.52623 0.8824361,-0.953566 1.0271351,-0.50518 0.09846,0.305107 3.6387979,0.350944 3.7515279,0.04858 0.05846,-0.156794 0.266933,-0.231688 0.644925,-0.231688 0.365192,0 0.586909,-0.07607 0.640471,-0.219738 0.04505,-0.120861 0.23519,-0.219746 0.422515,-0.219746 0.187324,0 0.340589,-0.06731 0.340589,-0.149635 0,-0.08229 0.160118,-0.224722 0.355817,-0.316503 0.777206,-0.364458 0.390137,-0.99445 -0.616527,-1.003433 -0.287146,-0.0028 -0.646408,-0.101453 -0.79836,-0.219747 -0.151951,-0.118296 -0.456175,-0.215082 -0.676052,-0.215082 -0.219879,0 -0.399778,-0.06067 -0.399778,-0.134853 0,-0.07417 -0.192141,-0.17829 -0.426981,-0.231383 -0.234839,-0.05307 -0.42698,-0.155949 -0.42698,-0.22859 0,-0.07263 -0.160118,-0.173426 -0.355817,-0.223983 -0.1957,-0.05058 -0.355818,-0.176604 -0.355818,-0.280107 0,-0.1035 -0.09607,-0.22613 -0.21349,-0.272504 -0.277171,-0.109485 -0.284384,-1.066936 -0.01013,-1.349185 0.249621,-0.25693 0.606586,-0.272056 0.685286,-0.02903 0.117674,0.363355 3.566106,0.410747 3.912924,0.05376 0.0452,-0.0465 -0.08035,-0.233571 -0.279024,-0.415656 -0.610242,-0.559255 -1.40526,-1.207416 -1.5441,-1.258819 -0.07253,-0.02687 -0.131879,-0.109261 -0.131879,-0.183123 0,-0.07386 -0.256188,-0.397975 -0.569307,-0.720263 -1.051937,-1.082738 -0.435138,-2.050919 1.306575,-2.050919 0.732095,0 0.970654,-0.04989 0.970654,-0.202892 0,-0.490586 1.073919,-0.855358 1.451291,-0.492956 1.081668,1.038762 1.956178,0.811975 1.962611,-0.508968 0.0022,-0.471748 0.768406,-0.994758 1.04305,-0.712073 0.08494,0.08742 0.294895,0.158956 0.466563,0.158956 0.171668,0 0.348991,0.09889 0.394049,0.219746 0.04506,0.120853 0.21428,0.219741 0.376052,0.219741 0.16177,0 0.454459,0.108135 0.650421,0.240288 0.404868,0.273045 2.524847,0.211868 2.809459,-0.08108 0.08507,-0.08757 0.319762,-0.159211 0.521529,-0.159211 0.201764,0 0.493178,-0.08951 0.647587,-0.198898 0.519477,-0.368034 1.35524,-0.577435 1.683465,-0.421789 1.035935,0.491237 1.799628,0.630305 1.799628,0.327698 0,-0.08057 0.179901,-0.146497 0.399778,-0.146497 0.219878,0 0.524102,-0.09678 0.676053,-0.215081 0.393974,-0.306711 3.309064,-0.31405 3.700497,-0.0093 0.395819,0.308149 3.714903,0.308149 4.110722,0 0.395933,-0.308239 0.72237,-0.266728 1.156101,0.147009 0.562435,0.536511 0.314146,1.38726 -0.406718,1.393596 -0.140406,0.0014 -0.423656,0.162937 -0.629444,0.35934 l -0.374164,0.357101 0.368981,0.09532 c 0.533818,0.137908 3.30054,-0.668484 3.698321,-1.077916 0.339731,-0.349679 0.9332,-0.205919 1.030403,0.249592 0.113143,0.530224 -0.03141,1.145296 -0.293486,1.248805 -0.695076,0.274538 0.427168,0.967414 1.566908,0.967414 0.417761,0 0.989496,0.09888 1.270521,0.219739 0.281024,0.12086 0.913305,0.22184 1.405068,0.224404 0.559537,0.0028 0.997496,0.08514 1.170389,0.219739 0.151951,0.118297 0.536233,0.217181 0.853961,0.219739 0.317727,0.0028 0.70201,0.101453 0.853962,0.219745 0.151951,0.118297 0.449322,0.215082 0.660824,0.215082 0.211503,0 0.421416,0.09889 0.466476,0.219739 0.206076,0.552751 1.191915,0.01458 1.436974,-0.784438 0.11534,-0.376077 -0.168145,-1.632719 -0.368326,-1.632719 -0.06811,0 -0.12383,-0.07273 -0.12383,-0.161644 0,-0.287625 -1.951085,-2.182262 -2.24728,-2.182262 -0.156281,0 -0.321015,-0.09888 -0.366072,-0.21974 -0.05065,-0.135863 -0.26713,-0.21974 -0.567109,-0.21974 -0.266851,0 -0.564915,-0.09889 -0.662365,-0.219745 -0.103669,-0.128573 -0.42091,-0.221674 -0.764644,-0.224397 -0.323103,-0.0028 -0.711785,-0.101452 -0.863735,-0.219737 -0.151952,-0.118298 -0.548466,-0.21509 -0.881143,-0.21509 -0.33268,0 -0.639826,-0.05819 -0.682552,-0.129366 -0.04273,-0.07116 -0.446798,-0.176634 -0.897942,-0.234383 -0.451184,-0.05773 -0.884347,-0.147831 -0.962627,-0.200204 -0.158348,-0.105952 -2.131008,-0.3926 -4.198643,-0.610106 -0.743658,-0.07822 -1.608293,-0.225116 -1.921411,-0.326414 -0.735237,-0.237856 -2.62658,-0.21224 -2.776604,0.0376 -0.06091,0.101453 -0.45383,0.217583 -0.873144,0.258077 -0.419312,0.04049 -0.803187,0.138696 -0.853055,0.218233 -0.12296,0.196093 -3.966344,0.16546 -4.15934,-0.0332 -0.08134,-0.08372 -0.343228,-0.152618 -0.581982,-0.153115 -0.238753,-4.97e-4 -0.605911,-0.09316 -0.815907,-0.205934 -0.209997,-0.112766 -0.578267,-0.249445 -0.818379,-0.303725 -0.240114,-0.05431 -0.436568,-0.15414 -0.436568,-0.221909 0,-0.06779 -0.186792,-0.165438 -0.415091,-0.21705 -0.2283,-0.05161 -0.450455,-0.188698 -0.493677,-0.304632 -0.04323,-0.115933 -0.176667,-0.210789 -0.296545,-0.210789 -0.119875,0 -0.217955,-0.05874 -0.217955,-0.130612 0,-0.07184 -0.160119,-0.171974 -0.355819,-0.222531 -1.510621,-0.390242 -0.298774,-1.246601 1.757693,-1.242089 2.367066,0.0055 3.534348,-0.266915 2.227459,-0.519271 -0.273978,-0.05286 -0.498144,-0.157864 -0.498144,-0.233248 0,-0.07539 -0.175495,-0.182402 -0.389989,-0.237815 -0.214495,-0.05542 -0.475257,-0.188512 -0.579474,-0.29578 -0.10422,-0.107268 -0.313003,-0.195027 -0.463971,-0.195027 -0.150969,0 -0.274487,-0.06468 -0.274487,-0.143707 0,-0.07904 -0.16912,-0.187391 -0.375822,-0.240794 -0.206702,-0.05342 -0.615514,-0.351304 -0.908469,-0.662008 -0.292957,-0.310713 -0.604191,-0.564933 -0.69163,-0.564933 -0.08745,0 -0.158983,-0.0956 -0.158983,-0.212464 0,-0.116852 -0.0816,-0.265173 -0.181325,-0.329612 -1.285999,-0.83086 -0.510873,-2.465859 0.848024,-1.788773 0.337834,0.168333 0.614243,0.366106 0.614243,0.439485 0,0.07338 0.147876,0.13343 0.328614,0.13343 0.180738,0 0.452938,0.09678 0.604889,0.215083 0.151951,0.118296 0.488406,0.217174 0.747676,0.219738 0.259271,0.0028 0.794023,0.113273 1.188338,0.246025 0.753391,0.253641 0.569815,0.261201 5.38544,-0.221818 1.109991,-0.111341 1.41991,-0.612884 0.580284,-0.939088 -0.240876,-0.09359 -0.437957,-0.214474 -0.437957,-0.268652 0,-0.05418 -0.144106,-0.137106 -0.320235,-0.184295 -0.448108,-0.120059 -1.387688,-1.048222 -1.387688,-1.370834 0,-0.14732 -0.0982,-0.412176 -0.218235,-0.58856 -0.378852,-0.556724 0.183214,-0.982313 1.125505,-0.85222 0.40122,0.05542 1.149671,0.153477 1.663226,0.21797 0.513554,0.06447 1.069756,0.192194 1.236002,0.283769 0.166248,0.09157 0.690761,0.166502 1.165586,0.166502 h 0.863319 v -0.439478 c 0,-0.292987 -0.07117,-0.439484 -0.213491,-0.439484 -0.117419,0 -0.213491,-0.09889 -0.213491,-0.219739 0,-0.12086 -0.09607,-0.219747 -0.21349,-0.219747 -0.11742,0 -0.21349,-0.09888 -0.21349,-0.219738 0,-0.120861 -0.09607,-0.219738 -0.213491,-0.219738 -0.117419,0 -0.21349,-0.09889 -0.21349,-0.219747 0,-0.120854 -0.09607,-0.219739 -0.21349,-0.219739 -0.407352,0 -0.283074,-1.41256 0.1616,-1.83673 0.381056,-0.363494 1.319745,-0.39083 1.681532,-0.04893 0.333818,0.315432 2.459578,0.147195 2.550457,-0.201848 0.121006,-0.464756 0.110936,-0.549359 -0.06538,-0.549359 -0.217511,0 -0.68844,-0.61054 -0.694132,-0.899913 -0.0088,-0.447597 0.86042,-0.570012 1.381257,-0.194524 0.362084,0.261035 3.539069,0.332099 3.779585,0.08454 0.121168,-0.124711 -0.06122,-0.712654 -0.425525,-1.371665 -0.03373,-0.06102 0.05483,-0.156193 0.196785,-0.21155 0.141952,-0.05535 0.342726,-0.186729 0.446168,-0.29195 0.103443,-0.105222 0.439688,-0.191318 0.747215,-0.191318 0.307529,0 0.559142,-0.06758 0.559142,-0.150119 0,-0.08256 0.160116,-0.212779 0.355817,-0.289359 0.195699,-0.07659 0.356923,-0.256239 0.358275,-0.399232 0.007,-0.734968 0.543013,-0.919215 2.67437,-0.919215 1.28496,0 2.014232,-0.05555 2.04674,-0.155943 0.02778,-0.08577 0.321325,-0.193335 0.652332,-0.239034 0.331005,-0.04568 0.601828,-0.13318 0.601828,-0.194412 0,-0.06122 0.15651,-0.151756 0.347799,-0.201172 0.191288,-0.04941 0.55782,-0.287285 0.814516,-0.528606 0.256696,-0.241319 0.548515,-0.438766 0.648491,-0.438766 0.09998,0 0.18177,-0.0615 0.18177,-0.136622 0,-0.07514 0.144106,-0.182914 0.320235,-0.239489 0.176129,-0.05659 0.35226,-0.148488 0.3914,-0.204246 0.299884,-0.427253 2.762814,-0.77687 2.881918,-0.409093 0.043,0.132774 0.676394,0.195277 2.324675,0.229392 2.094244,0.04332 2.321252,0.07525 3.001876,0.421754 0.551914,0.280977 0.854881,0.350937 1.209777,0.279353 1.621395,-0.327034 2.821862,-0.196085 2.821862,0.307817 0,0.09754 0.224169,0.220624 0.498147,0.273528 0.558416,0.107832 1.494431,-0.03006 1.494431,-0.22016 0,-0.0682 0.15217,-0.163288 0.33816,-0.211336 0.185989,-0.04803 0.631292,-0.384804 0.989568,-0.748352 0.358275,-0.363548 0.711624,-0.660993 0.785225,-0.660993 0.0736,0 0.17069,-0.09889 0.215744,-0.21974 0.04506,-0.120858 0.173159,-0.219745 0.284655,-0.219745 0.111499,0 0.239598,-0.09888 0.284654,-0.219738 0.111048,-0.29786 0.944818,-0.29786 0.944818,0 0,0.12086 0.06406,0.219738 0.14233,0.219738 0.188422,0 0.183874,0.400815 -0.0055,0.465709 -0.08118,0.02784 -0.161244,0.34648 -0.177911,0.708059 l -0.03033,0.657413 0.769103,-0.02184 c 0.540893,-0.01533 0.806938,-0.09143 0.896613,-0.256371 0.07013,-0.128986 0.220402,-0.234526 0.33393,-0.234526 0.113535,0 0.206423,-0.06469 0.206423,-0.143698 0,-0.07904 0.15548,-0.183869 0.345518,-0.232966 0.190033,-0.04906 0.380168,-0.182189 0.422514,-0.295779 0.04236,-0.113584 0.140845,-0.20652 0.218882,-0.20652 0.07804,0 0.338444,-0.197764 0.578678,-0.439485 0.240221,-0.24172 0.523783,-0.439485 0.630133,-0.439485 0.106346,0 0.230221,-0.09889 0.275276,-0.219746 0.187371,-0.502575 0.802495,0.0095 0.802495,0.668014 0,0.919029 0.193064,0.981636 2.799769,0.907827 l 2.34484,-0.06641 0.425962,0.490476 0.425963,0.490475 1.356984,-0.01514 c 0.746342,-0.0083 1.398592,-0.08036 1.449446,-0.160076 0.05086,-0.07972 0.316627,-0.188511 0.590613,-0.24176 0.46228,-0.08985 0.924101,-0.281566 1.872206,-0.777217 0.878983,-0.459525 1.864122,0.0085 1.377088,0.654207 -0.293484,0.389109 -0.834254,0.906223 -0.947686,0.906223 -0.0568,0 -0.308182,0.192638 -0.558623,0.428076 -0.250442,0.235445 -0.568943,0.450259 -0.707769,0.47736 -0.434165,0.08477 -0.424331,0.852496 0.01091,0.852496 0.194372,0 0.376133,-0.07018 0.403911,-0.155943 0.02778,-0.08577 0.337339,-0.194537 0.687916,-0.2417 0.350577,-0.04713 0.676216,-0.146794 0.723641,-0.221404 0.04741,-0.0746 0.350702,-0.172155 0.673943,-0.216774 0.323241,-0.04464 0.66055,-0.171472 0.749574,-0.281883 0.08902,-0.110407 0.346163,-0.200743 0.571416,-0.200743 0.225253,0 0.409558,-0.06593 0.409558,-0.146497 0,-0.222324 0.704223,-0.175051 0.935288,0.06281 0.229482,0.236206 0.280202,1.402157 0.06102,1.402157 -0.07828,0 -0.142324,0.09889 -0.142324,0.219747 0,0.120853 -0.128095,0.351586 -0.284654,0.512726 -0.411401,0.423439 -0.352181,0.585975 0.213485,0.585975 0.347911,0 0.498146,-0.06627 0.498146,-0.219739 0,-0.137452 0.134916,-0.219739 0.360287,-0.219739 0.198152,0 0.397146,-0.09889 0.442207,-0.219745 0.04506,-0.120855 0.139145,-0.21974 0.209084,-0.21974 0.06994,0 0.627968,-0.527376 1.240067,-1.171957 1.131888,-1.191941 1.631146,-1.441692 1.798301,-0.899596 0.0936,0.30354 -0.0324,0.753107 -0.211039,0.753107 -0.06372,0 -0.157987,0.197764 -0.209566,0.439483 -0.05157,0.241713 -0.152748,0.439478 -0.224802,0.439478 -0.07209,0 -0.131022,0.07688 -0.131022,0.170828 0,0.185534 -0.169399,0.393118 -1.125669,1.379376 -0.345142,0.355968 -0.705575,0.647213 -0.800957,0.647213 -0.09538,0 -0.253151,0.09888 -0.350599,0.219741 -0.09746,0.120859 -0.265415,0.219737 -0.37325,0.219737 -0.214502,0 -0.765365,0.511179 -0.765365,0.710229 0,0.324436 1.073921,0.624658 1.709064,0.477775 0.633586,-0.146526 0.844933,-0.05605 0.850639,0.364109 0.0045,0.352442 -1.200774,1.082565 -1.798871,1.089448 -0.222758,0.0028 -0.529339,0.101441 -0.681295,0.219738 -0.198558,0.154582 -0.662299,0.215081 -1.64862,0.215081 -0.754785,0 -1.40752,0.03621 -1.450522,0.08047 -0.171499,0.176523 0.255388,0.796254 0.54924,0.797353 0.167754,6.29e-4 0.34187,0.100024 0.386932,0.220886 0.117752,0.315847 3.323698,0.319855 3.72857,0.0048 0.151949,-0.118296 0.377032,-0.217182 0.500179,-0.219745 0.123156,-0.0028 0.682679,-0.458489 1.243389,-1.013174 l 1.019474,-1.008516 0.500122,0.233317 c 0.5542,0.258554 0.75022,1.214103 0.28664,1.397212 -0.11743,0.04636 -0.2135,0.218232 -0.2135,0.381907 0,0.16367 -0.0641,0.297583 -0.142332,0.297583 -0.0783,0 -0.14232,0.131849 -0.14232,0.292987 0,0.539561 1.867612,-0.04699 2.678792,-0.841286 0.10344,-0.101295 0.3116,-0.184165 0.46256,-0.184165 0.15097,0 0.27449,-0.06758 0.27449,-0.150126 0,-0.08256 0.14411,-0.208717 0.32023,-0.280342 0.17613,-0.07163 0.54083,-0.30072 0.81045,-0.509106 0.54903,-0.424338 1.14655,-0.504876 1.14655,-0.15454 0,0.123388 0.0961,0.262286 0.21348,0.30866 0.23625,0.09331 0.29701,0.638955 0.0712,0.638955 -0.0783,0 -0.14232,0.197764 -0.14232,0.439486 0,0.43153 0.18243,0.581745 0.35581,0.292988 0.0483,-0.08057 0.23912,-0.146498 0.42385,-0.146498 0.34321,0 1.11628,-0.36703 1.46565,-0.695848 0.10701,-0.10071 0.28073,-0.183115 0.38604,-0.183115 0.1053,0 0.21665,-0.07778 0.24744,-0.172853 0.0891,-0.275082 0.52739,-0.01887 0.68153,0.398432 0.0905,0.244899 0.0915,0.473296 0.003,0.643717 -0.0755,0.145273 -0.0969,0.305764 -0.0475,0.356644 0.17816,0.183377 0.90645,0.08952 0.98726,-0.127232 0.0451,-0.12086 0.20316,-0.219745 0.35134,-0.219745 0.14818,0 0.26943,-0.0615 0.26943,-0.136622 0,-0.07514 0.14111,-0.182722 0.3136,-0.239067 0.17248,-0.05632 0.40122,-0.192631 0.50831,-0.302863 0.1071,-0.110227 0.28302,-0.200411 0.39097,-0.200411 0.10793,0 0.2488,-0.09666 0.31304,-0.214805 0.074,-0.136082 0.23306,-0.183508 0.43405,-0.129408 0.3963,0.106662 0.48452,1.565254 0.10377,1.715635 -0.11742,0.04637 -0.2135,0.251202 -0.2135,0.455158 0,0.203956 -0.0597,0.370832 -0.13272,0.370832 -0.073,0 -0.17692,0.143263 -0.23091,0.318361 -0.10603,0.343861 -0.21859,0.502244 -0.79205,1.114623 -0.65407,0.698467 -1.05522,1.003383 -1.77316,1.347747 -2.00522,0.961837 -1.88647,0.874526 -1.71309,1.259545 0.14952,0.33201 0.65679,0.505547 0.65679,0.224686 0,-0.07143 0.28821,-0.174344 0.64047,-0.228714 0.35226,-0.05438 0.64047,-0.16074 0.64047,-0.23638 0,-0.220816 0.59573,-0.158307 0.8629,0.09055 0.43582,0.405962 -0.92004,1.822861 -1.74434,1.822861 -0.12228,0 -0.30205,0.09888 -0.3995,0.219738 -0.0975,0.12086 -0.35615,0.219739 -0.57488,0.219739 -0.21872,0 -0.42042,0.07018 -0.4482,0.155944 -0.0278,0.08577 -0.33733,0.188463 -0.68791,0.228204 -0.68488,0.07764 -2.14408,0.474104 -2.29488,0.623526 -0.15092,0.149551 0.13738,0.750258 0.36009,0.750258 0.11342,0 0.22958,0.07215 0.25813,0.160311 0.051,0.157754 0.45629,0.266866 2.20914,0.594856 0.67684,0.12665 1.09566,0.123105 1.77909,-0.01506 1.61293,-0.326032 2.16778,-0.289353 2.21712,0.146579 0.0648,0.572689 -0.91131,1.513352 -1.68807,1.626736 -0.18916,0.02764 -0.36378,0.157539 -0.38807,0.288724 -0.0914,0.494256 4.72784,0.525358 5.20562,0.03358 0.10626,-0.109373 0.29566,-0.198864 0.4209,-0.198864 0.12523,0 0.32881,-0.09276 0.45239,-0.206126 0.21311,-0.195483 0.57249,-0.28757 0.9765,-0.250226 0.84977,0.07855 -0.43782,2.653769 -1.32685,2.653769 -0.11426,0 -0.20775,0.06593 -0.20775,0.146491 0,0.08057 -0.0849,0.146497 -0.18868,0.146497 -0.27154,0 -0.85491,0.681654 -0.74295,0.868121 0.14485,0.241236 3.15981,0.18905 3.84934,-0.06661 0.31311,-0.116106 0.70883,-0.212096 0.87937,-0.213312 0.17055,-0.0014 0.39534,-0.08997 0.49955,-0.19724 0.10417,-0.107269 0.36498,-0.240366 0.57947,-0.295779 0.2145,-0.05542 0.39,-0.16541 0.39,-0.244451 0,-0.07903 0.0981,-0.143698 0.21795,-0.143698 0.11988,0 0.25482,-0.09889 0.29988,-0.219746 0.0451,-0.120854 0.16656,-0.219739 0.27002,-0.219739 0.1035,0 0.29039,-0.105289 0.41541,-0.233966 0.778,-0.800781 1.02721,1.214343 0.26589,2.149922 -0.1035,0.127203 -0.18821,0.271869 -0.18821,0.321479 0,0.232931 -1.89856,2.010896 -2.14727,2.010896 -0.15467,0 -0.31658,0.09486 -0.3598,0.21079 -0.0433,0.115934 -0.26539,0.253018 -0.49368,0.30463 -0.2283,0.05162 -0.41509,0.154521 -0.41509,0.228689 0,0.07417 -0.11208,0.135261 -0.24908,0.135758 -0.13699,4.99e-4 -0.43252,0.09938 -0.65674,0.219739 -0.22421,0.120362 -0.6085,0.21925 -0.85396,0.219746 -0.24546,4.98e-4 -0.62973,0.09937 -0.85396,0.219739 -0.57822,0.310395 -3.25587,0.309704 -3.50631,-6.91e-4 -0.3487,-0.432457 -2.56189,-0.305903 -2.56189,0.14649 0,0.647132 -0.44423,0.933492 -1.52335,0.98199 -1.03932,0.04671 -1.43669,0.434363 -0.54039,0.52716 0.23484,0.02432 0.62881,0.139677 0.87547,0.256364 0.24668,0.116686 0.86331,0.212158 1.3703,0.212158 1.97469,0 2.69874,0.945715 1.0199,1.332123 -1.26364,0.290845 -1.97293,0.306801 -3.17814,0.07148 -0.65253,-0.127411 -1.4607,-0.231651 -1.79594,-0.231651 -0.4105,0 -0.63627,-0.07176 -0.69145,-0.219747 -0.0479,-0.128453 -0.26115,-0.219739 -0.51337,-0.219739 -0.23729,0 -0.43144,-0.06067 -0.43144,-0.134854 0,-0.07417 -0.19214,-0.17829 -0.42698,-0.231382 -0.23485,-0.05307 -0.42699,-0.157208 -0.42699,-0.231384 0,-0.07417 -0.0915,-0.134853 -0.20332,-0.134853 -0.11182,0 -0.29915,-0.09862 -0.41627,-0.219172 -0.11711,-0.120542 -0.36186,-0.285193 -0.54389,-0.365884 -0.44772,-0.198477 -0.8786,-0.482404 -1.00181,-0.660142 -0.12177,-0.175672 -2.172943,-0.198137 -2.340532,-0.02564 -0.06462,0.06648 -0.0054,0.185112 0.130464,0.263648 0.136332,0.07852 0.249534,0.221907 0.25155,0.318623 0.0018,0.09671 0.274226,0.303919 0.604896,0.460472 0.33067,0.156545 0.685852,0.37079 0.789292,0.476102 0.10344,0.105312 0.37564,0.191476 0.60489,0.191476 0.34332,0 0.41681,0.06109 0.41681,0.346321 0,0.559412 -2.159832,0.674406 -2.6766,0.14251 -0.104648,-0.107719 -0.299512,-0.195843 -0.433036,-0.195843 -0.133524,0 -0.453132,-0.197764 -0.710255,-0.439486 -0.257112,-0.241713 -0.500482,-0.439477 -0.540811,-0.439477 -0.119614,0 -0.905179,-0.84589 -0.907852,-0.977571 -0.0042,-0.202417 -0.663903,-0.780361 -0.890876,-0.780361 -0.117005,0 -0.396193,-0.09848 -0.620408,-0.218842 -0.273993,-0.147077 -0.832223,-0.219129 -1.702417,-0.219739 -1.409379,-6.9e-4 -1.290101,-0.05528 -2.555547,1.163437 -0.317223,0.30551 -0.71752,0.601455 -0.889544,0.657655 -0.172017,0.05618 -0.312765,0.163656 -0.312765,0.238799 0,0.07514 -0.209911,0.136622 -0.466475,0.136622 -0.256565,0 -0.592809,0.08979 -0.747213,0.199527 -0.15441,0.109732 -0.630296,0.23322 -1.057523,0.274406 -0.427234,0.04119 -0.800836,0.149164 -0.830239,0.239958 -0.02944,0.09079 -0.21437,0.165072 -0.411043,0.165072 -0.340723,0 -1.008985,0.310276 -1.468945,0.682041 -0.147769,0.119437 -1.365231,0.187578 -3.95488,0.221363 -2.510997,0.03275 -3.77475,0.1017 -3.842822,0.209643 -0.05577,0.08846 -0.610176,0.20406 -1.231967,0.256888 -0.621791,0.0528 -1.166194,0.151548 -1.209785,0.219373 -0.0436,0.06786 -0.334931,0.16492 -0.647435,0.215766 -0.3125,0.05086 -0.590037,0.159916 -0.616745,0.242391 -0.02674,0.08247 -0.12813,0.149945 -0.225384,0.149945 -0.350572,0 -1.080397,1.131422 -1.080397,1.674885 0,0.280535 0.872348,0.668215 1.515935,0.673687 0.301294,0.0028 0.672125,0.101441 0.824074,0.219739 0.168217,0.130956 0.595,0.215081 1.091177,0.215081 0.465398,0 0.837247,0.06903 0.867001,0.160906 0.02868,0.08849 0.370244,0.196906 0.759077,0.240912 0.388833,0.04402 0.745774,0.141398 0.793199,0.216435 0.04741,0.07504 0.351656,0.173075 0.676058,0.21786 0.324402,0.04478 0.589818,0.133436 0.589818,0.196998 0,0.06357 0.208156,0.162045 0.462565,0.218854 0.254407,0.0568 0.494586,0.152618 0.533726,0.212911 0.370458,0.570655 2.092223,1.05342 3.970712,1.113352 1.064716,0.03393 1.956677,0.125373 1.982129,0.203121 0.02542,0.07775 0.361702,0.184433 0.747218,0.237069 0.385514,0.05265 0.700934,0.153137 0.700934,0.223331 0,0.07019 0.25619,0.127619 0.569308,0.127619 0.313117,0 0.569307,-0.06593 0.569307,-0.146497 0,-0.08057 0.123521,-0.146491 0.274489,-0.146491 0.150968,0 0.370556,-0.09889 0.487975,-0.21974 0.273376,-0.281377 3.777334,-0.322735 4.044505,-0.04774 0.289022,0.297481 3.203004,0.35221 3.481667,0.06537 0.126851,-0.13057 0.299269,-0.237402 0.383139,-0.237402 0.08387,0 0.152496,-0.09889 0.152496,-0.219739 0,-0.120859 0.09606,-0.219739 0.213481,-0.219739 0.117424,0 0.213499,-0.09889 0.213499,-0.219745 0,-0.120853 0.09607,-0.21974 0.213489,-0.21974 0.117414,0 0.21348,-0.09889 0.21348,-0.219746 0,-0.120853 0.09809,-0.219738 0.217973,-0.219738 0.119871,0 0.254817,-0.09889 0.299871,-0.219739 0.04509,-0.120861 0.205182,-0.219746 0.355816,-0.219746 0.150642,0 0.310761,-0.09888 0.355824,-0.21974 0.06651,-0.178381 0.40243,-0.219738 1.784782,-0.219738 1.32388,0 1.75037,0.04893 1.91635,0.219738 0.11742,0.120861 0.33016,0.21974 0.47275,0.21974 0.1426,0 0.29613,0.09889 0.34119,0.219746 0.0674,0.180751 0.43317,0.219739 2.06153,0.219739 1.58602,0 2.01484,0.04367 2.1568,0.219738 0.0974,0.12086 0.33403,0.219746 0.52574,0.219746 0.1917,0 0.44463,0.09889 0.56204,0.21974 0.16226,0.167006 0.56686,0.219745 1.6859,0.219745 0.95247,0 1.491,0.05742 1.52507,0.162627 0.095,0.293429 3.1408,0.362317 3.37147,0.07625 0.10594,-0.131385 0.31487,-0.238881 0.4643,-0.238881 0.14943,0 0.30856,-0.09889 0.35362,-0.219745 0.0451,-0.120853 0.22834,-0.21974 0.40729,-0.21974 0.17894,0 0.36223,-0.09889 0.40728,-0.219746 0.0451,-0.120853 0.22098,-0.219739 0.39094,-0.219739 0.16995,0 0.39491,-0.115366 0.4999,-0.256362 0.13159,-0.176717 0.2249,-0.205609 0.30035,-0.09299 0.0602,0.08985 0.25355,0.209664 0.42969,0.266238 0.36201,0.116278 0.49694,1.756004 0.15418,1.873604 -0.2349,0.0806 -0.20682,0.991349 0.0356,1.153837 0.23132,0.155074 1.31648,0.01568 1.38768,-0.178221 0.0261,-0.07107 0.23106,-0.129209 0.4555,-0.129209 0.22442,0 0.46128,-0.09793 0.52637,-0.217638 0.0746,-0.137216 0.3796,-0.231942 0.82545,-0.256364 l 0.70712,-0.0387 0.0426,0.842339 c 0.0313,0.617837 -0.007,0.842346 -0.14316,0.842346 -0.10226,0 -0.2709,0.197764 -0.37485,0.439477 -0.10395,0.24172 -0.2637,0.440625 -0.35497,0.442015 -0.25173,0.0042 -0.84101,0.700394 -0.73787,0.872176 0.0497,0.08291 0.27356,0.150754 0.49725,0.150754 0.2237,0 0.43367,0.08241 0.4666,0.183114 0.0733,0.224231 2.14374,0.190683 2.21713,-0.03593 0.0262,-0.08096 0.23648,-0.147188 0.46725,-0.147188 0.24168,0 0.45432,-0.09317 0.50152,-0.219738 0.0451,-0.12086 0.23719,-0.219747 0.42697,-0.219747 0.18979,0 0.38193,-0.09888 0.42699,-0.219739 0.13312,-0.357066 1.19009,-0.299455 1.19009,0.06489 0,0.33697 -0.54139,1.326822 -0.72571,1.326822 -0.0705,0 -0.12826,0.06593 -0.12826,0.14649 0,0.262852 -0.72583,0.874125 -1.38769,1.168682 -0.17613,0.07838 -0.32023,0.202926 -0.32023,0.276755 0,0.07383 -0.16012,0.175603 -0.35581,0.226159 -0.19571,0.05058 -0.35583,0.156585 -0.35583,0.235624 0,0.07903 -0.17933,0.1437 -0.39851,0.1437 -0.21918,0 -0.47829,0.08241 -0.57581,0.183122 -0.11358,0.117315 -0.80089,0.209436 -1.91277,0.256363 -1.45474,0.06144 -1.74264,0.111847 -1.77969,0.311832 -0.0917,0.494649 0.36082,0.713627 1.4746,0.713627 1.03288,0 1.05728,0.0084 1.05728,0.366237 0,0.227879 -0.0807,0.366237 -0.21349,0.366237 -0.11742,0 -0.2135,0.09888 -0.2135,0.219737 0,0.137474 -0.13492,0.21974 -0.36038,0.21974 -0.19821,0 -0.59032,0.09889 -0.87133,0.219746 -0.69047,0.296941 -2.86068,0.297513 -3.41322,6.91e-4 -0.22422,-0.120363 -0.72084,-0.219241 -1.10361,-0.219738 -0.48218,-6.29e-4 -0.74878,-0.07527 -0.86795,-0.243029 -0.21054,-0.296352 -0.49985,-0.141962 -0.49985,0.266744 0,0.502961 0.57341,0.995456 1.16234,0.998309 0.28708,0.0014 0.54836,0.08435 0.58076,0.184388 0.0401,0.123852 0.44105,0.186872 1.25721,0.197598 2.48237,0.03261 2.40813,0.01949 2.40813,0.426265 0,0.201427 -0.0641,0.366235 -0.14234,0.366235 -0.41233,0 -0.082,0.436486 0.3914,0.517171 0.29356,0.05003 0.70382,0.157332 0.91171,0.238437 0.62348,0.243241 4.18418,-0.121813 4.38274,-0.449338 0.0431,-0.07112 0.51071,-0.176806 1.03909,-0.234859 l 0.96072,-0.105547 v 0.387901 c 0,0.213346 -0.0961,0.425844 -0.2135,0.472226 -0.11742,0.04637 -0.2135,0.146552 -0.2135,0.222614 0,0.151859 -1.00891,1.146982 -1.16403,1.148109 -0.0532,3.87e-4 -0.1812,0.08326 -0.28464,0.184172 -0.10339,0.100913 -0.44427,0.306739 -0.75739,0.457396 -0.31312,0.150657 -0.75063,0.364743 -0.97223,0.47575 -0.22163,0.111004 -0.5136,0.201828 -0.64886,0.201828 -0.13526,0 -0.37024,0.0968 -0.52218,0.215081 -0.15196,0.118296 -0.50045,0.218213 -0.77443,0.222034 -0.27398,0.0042 -0.88242,0.102454 -1.3521,0.219178 -1.11634,0.27744 -2.72738,0.278795 -3.48702,0.0028 -0.65593,-0.238203 -1.52949,-0.285345 -1.81619,-0.09801 -0.32757,0.214039 0.70133,0.949793 1.76746,1.263892 0.37076,0.109226 0.50535,0.419493 0.389,0.896681 -0.10844,0.444701 -3.10962,0.559606 -3.52228,0.134853 -0.11743,-0.12086 -0.40563,-0.219745 -0.64047,-0.219745 -0.23484,0 -0.52306,-0.09888 -0.64047,-0.21974 -0.11742,-0.120861 -0.34818,-0.21974 -0.51279,-0.21974 -0.1646,0 -0.33615,-0.09889 -0.38121,-0.219745 -0.0451,-0.120853 -0.19297,-0.219738 -0.32871,-0.219738 -0.13573,0 -0.55191,-0.296652 -0.92482,-0.659223 -0.37293,-0.362575 -0.7084,-0.659225 -0.74551,-0.659225 -0.0371,0 -0.34374,-0.28017 -0.6814,-0.6226 -1.06985,-1.084958 -1.8169,-1.57481 -2.4016,-1.57481 -0.19857,0 -0.40062,-0.06593 -0.44901,-0.146499 -0.0484,-0.08057 -0.32436,-0.148727 -0.61328,-0.151465 -0.28893,-0.0028 -0.78151,-0.132338 -1.09464,-0.288018 -0.31311,-0.155674 -0.63627,-0.285283 -0.71812,-0.288019 -0.0819,-0.0028 -0.70892,-0.30162 -1.3935,-0.664193 -1.19435,-0.632557 -1.84089,-0.804111 -2.00438,-0.531832 -0.0825,0.137436 0.49346,0.898068 0.68005,0.898068 0.0623,0 0.29165,0.181284 0.50978,0.402861 0.76708,0.779164 1.36517,1.283695 1.82374,1.538463 0.76096,0.422769 1.00153,0.739694 0.84157,1.108679 -0.14743,0.340069 -1.23357,0.485569 -1.23357,0.165253 0,-0.08477 -0.19214,-0.223063 -0.42698,-0.30732 -0.23483,-0.08426 -0.42698,-0.212684 -0.42698,-0.285372 0,-0.07269 -0.0961,-0.13216 -0.21349,-0.13216 -0.11742,0 -0.21348,-0.06934 -0.21348,-0.154119 0,-0.08476 -0.19215,-0.223055 -0.42699,-0.307319 -0.23484,-0.08426 -0.42698,-0.212678 -0.42698,-0.285366 0,-0.07269 -0.0961,-0.132165 -0.21349,-0.132165 -0.11742,0 -0.21349,-0.06593 -0.21349,-0.14649 0,-0.08057 -0.08,-0.146815 -0.17791,-0.147195 -0.0978,-3.87e-4 -0.421642,-0.231113 -0.719552,-0.512734 -0.297912,-0.281613 -0.596793,-0.512027 -0.664194,-0.512027 -0.06741,0 -0.145026,-0.06941 -0.172503,-0.154245 -0.08271,-0.255555 -1.101845,-0.424538 -2.582553,-0.428234 -1.842486,-0.0048 -4.094798,-0.279002 -4.376433,-0.533181 -0.123589,-0.111532 -0.419971,-0.202788 -0.658629,-0.202788 -0.23866,0 -0.513658,-0.09889 -0.611108,-0.219739 -0.09745,-0.120861 -0.322604,-0.219746 -0.500344,-0.219746 -0.177738,0 -0.360031,-0.09888 -0.405086,-0.219739 -0.04506,-0.12086 -0.204191,-0.219739 -0.353618,-0.219739 -0.149435,0 -0.351427,-0.09889 -0.448876,-0.219746 -0.09745,-0.120853 -0.265408,-0.21974 -0.373244,-0.21974 -0.107831,0 -0.196062,-0.06468 -0.196062,-0.143705 0,-0.07903 -0.155482,-0.183866 -0.345521,-0.232958 -0.190031,-0.04906 -0.380168,-0.182195 -0.422514,-0.295778 -0.04236,-0.113591 -0.239121,-0.206521 -0.437279,-0.206521 -0.225365,0 -0.360281,-0.08228 -0.360281,-0.219745 0,-0.134107 -0.132732,-0.219739 -0.340591,-0.219739 -0.187323,0 -0.377458,-0.09889 -0.422513,-0.219739 -0.04506,-0.120861 -0.204183,-0.219747 -0.353618,-0.219747 -0.149434,0 -0.351429,-0.09888 -0.448876,-0.219738 -0.09745,-0.12086 -0.322604,-0.219739 -0.500343,-0.219739 -0.177739,0 -0.360025,-0.09889 -0.405086,-0.219747 -0.04506,-0.120853 -0.209892,-0.219737 -0.366299,-0.219737 -0.368453,0 -1.290156,-0.948688 -1.290156,-1.32793 0,-0.160988 -0.09029,-0.328368 -0.200646,-0.37195 -0.110351,-0.0436 -0.239669,-0.239289 -0.287363,-0.434889 -0.04768,-0.195595 -0.149544,-0.355638 -0.226331,-0.355638 -0.07679,0 -0.139622,-0.07368 -0.139622,-0.163723 0,-0.173385 -1.039266,-1.301214 -1.199038,-1.301214 -0.223451,0 -1.295236,-1.0822 -1.603157,-1.618732 -0.136422,-0.237706 -0.288475,-0.432188 -0.337904,-0.432188 -0.04941,0 -0.237553,-0.131847 -0.418071,-0.292988 -0.180516,-0.161147 -0.419051,-0.292986 -0.530084,-0.292986 -0.111038,0 -0.29795,-0.09889 -0.415369,-0.219747 -0.117419,-0.120853 -0.459767,-0.219739 -0.760777,-0.219739 -0.301003,0 -0.568623,-0.06544 -0.594717,-0.145379 -0.02612,-0.07995 -0.543808,-0.188516 -1.150479,-0.241236 -0.606666,-0.05273 -1.103035,-0.152108 -1.103035,-0.220858 0,-0.168824 -2.611686,-0.16029 -2.782488,0.0091 -0.07436,0.07374 -0.29533,0.15615 -0.491028,0.183114 -0.597965,0.08239 -0.606236,1.00124 -0.009,1.00124 0.239801,0 0.436004,0.06516 0.436004,0.144762 0,0.07962 0.252231,0.186281 0.560517,0.237023 0.308286,0.05073 0.594488,0.183362 0.636005,0.294715 0.04153,0.111364 0.269631,0.202471 0.506929,0.202471 0.237298,0 0.431449,0.06067 0.431449,0.134852 0,0.07417 0.192139,0.178291 0.426977,0.231382 0.234844,0.05307 0.426983,0.150064 0.426983,0.215496 0,0.06544 0.160118,0.160339 0.355817,0.210894 0.195698,0.05058 0.355814,0.149931 0.355814,0.220832 0,0.0709 0.254043,0.265201 0.564542,0.43178 0.725444,0.389191 1.143382,0.823134 1.143382,1.187146 0,0.314091 0.557871,1.51255 0.740841,1.591534 0.06219,0.02688 0.11312,0.144284 0.11312,0.260958 0,0.116673 0.09607,0.250075 0.213493,0.296457 0.117418,0.04637 0.213491,0.176149 0.213491,0.288392 0,0.11223 0.09606,0.204066 0.213485,0.204066 0.117427,0 0.213493,0.07142 0.213493,0.158708 0,0.156884 0.93117,1.15974 1.076837,1.15974 0.04147,0 0.223761,0.164802 0.405135,0.366236 0.181366,0.201427 0.399978,0.366236 0.485798,0.366236 0.08583,0 0.270625,0.12475 0.410662,0.277226 0.140913,0.153434 0.540623,0.314899 0.895084,0.361578 0.352263,0.04637 0.918226,0.126879 1.257698,0.178852 0.383893,0.0588 0.677136,0.03283 0.775684,-0.06861 0.187295,-0.192777 1.809447,-0.22227 1.809447,-0.03289 0,0.07161 0.231431,0.174877 0.514296,0.229502 0.51659,0.09975 0.728942,0.227872 1.164106,0.702393 0.129312,0.140996 0.30627,0.256363 0.39325,0.256363 0.08697,0 0.344937,0.195932 0.573253,0.435414 0.228314,0.239475 0.495182,0.437245 0.593031,0.439477 0.09785,0.002 0.177911,0.06357 0.177911,0.136236 0,0.07269 0.176128,0.198033 0.391396,0.278546 0.809121,0.302613 0.995241,0.544713 0.687688,0.89451 -0.26966,0.30669 -0.993674,0.420488 -1.138699,0.178969 -0.04202,-0.07 -0.334015,-0.169654 -0.648865,-0.221473 -0.314858,-0.05183 -0.572467,-0.152221 -0.572467,-0.223106 0,-0.07089 -0.160116,-0.170247 -0.355815,-0.220803 -0.195697,-0.05058 -0.355816,-0.149924 -0.355816,-0.220829 0,-0.176253 -1.083242,-0.744469 -1.419254,-0.744469 -0.149531,0 -0.311452,-0.06592 -0.35983,-0.146498 -0.04838,-0.08057 -0.304568,-0.146489 -0.569307,-0.146489 -0.264746,0 -0.520929,0.06593 -0.56931,0.146489 -0.04838,0.08057 -0.300503,0.146498 -0.560281,0.146498 -0.259776,0 -0.552047,0.09888 -0.649501,0.219738 -0.24794,0.307499 -2.532398,0.311142 -2.926075,0.0048 -0.151951,-0.118291 -0.41353,-0.217176 -0.581283,-0.21974 -0.167754,-0.0028 -0.341879,-0.103545 -0.386933,-0.224401 -0.04506,-0.120855 -0.202511,-0.21974 -0.349893,-0.21974 -0.147382,0 -0.655844,-0.395535 -1.129916,-0.878963 -0.47407,-0.483434 -0.904469,-0.87897 -0.956441,-0.87897 -0.137093,0 -0.501144,-0.396467 -0.501144,-0.545757 0,-0.06996 -0.189432,-0.288925 -0.420951,-0.486572 -0.231529,-0.197646 -0.423668,-0.441764 -0.426985,-0.54248 -0.0035,-0.100722 -0.102094,-0.183117 -0.219517,-0.183117 -0.11742,0 -0.213494,-0.08702 -0.213494,-0.193361 0,-0.106347 -0.192138,-0.414863 -0.426977,-0.685608 -0.234837,-0.270736 -0.426983,-0.579257 -0.426983,-0.685607 0,-0.106346 -0.09606,-0.193356 -0.213486,-0.193356 -0.117419,0 -0.213491,-0.09889 -0.213491,-0.219738 0,-0.122083 -0.126514,-0.219747 -0.284655,-0.219747 -0.156558,0 -0.284654,-0.0615 -0.284654,-0.136621 0,-0.07514 -0.14112,-0.182721 -0.313593,-0.239068 -0.17248,-0.05632 -0.401223,-0.192629 -0.508312,-0.302862 -0.1071,-0.110228 -0.302219,-0.202511 -0.433617,-0.205068 -0.131399,-0.0028 -0.363231,-0.101452 -0.515187,-0.219745 -0.151949,-0.118298 -0.51337,-0.215083 -0.80315,-0.215083 -0.337041,0 -0.556394,-0.07917 -0.608801,-0.219739 -0.06385,-0.171333 -0.346817,-0.219745 -1.28431,-0.219745 -0.762719,0 -1.221856,-0.06012 -1.255648,-0.164478 -0.0804,-0.248257 -3.145848,-0.345513 -4.097938,-0.13001 -0.430537,0.09746 -1.308145,0.220064 -1.950239,0.272465 -0.642097,0.05238 -1.247342,0.177675 -1.344991,0.278393 -0.09765,0.10071 -0.358885,0.183114 -0.580526,0.183114 -0.226911,0 -0.438776,0.09601 -0.484906,0.219741 -0.04506,0.120858 -0.205176,0.219745 -0.355816,0.219745 -0.150643,0 -0.308542,0.09294 -0.350889,0.206519 -0.04235,0.113584 -0.232478,0.246688 -0.422514,0.295779 -0.190035,0.04906 -0.345518,0.153926 -0.345518,0.232965 0,0.07903 -0.07156,0.143698 -0.159035,0.143698 -0.315981,0 -2.402817,2.312895 -2.403726,2.664109 -4.83e-4,0.186465 -0.09655,0.527846 -0.21349,0.758626 -0.284892,0.562253 -0.27624,2.390132 0.01592,3.361719 0.30781,1.023663 0.61304,1.712213 0.75901,1.712213 0.06614,0 0.158228,0.155868 0.204684,0.346384 0.04645,0.190508 0.533751,0.824682 1.08288,1.409276 0.549128,0.5846 0.998713,1.104431 0.999076,1.155187 3.62e-4,0.05079 0.192504,0.302959 0.426981,0.560448 0.234476,0.257483 0.426321,0.523002 0.426321,0.590039 0,0.135309 0.341568,0.456823 1.241387,1.168494 0.330506,0.2614 0.719822,0.592471 0.865149,0.735721 0.529245,0.521676 1.02981,0.919678 1.156675,0.919678 0.07143,0 0.503253,0.393538 0.959628,0.874533 1.098993,1.158282 1.185587,1.270836 1.185587,1.541033 0,0.12679 0.09607,0.26847 0.213491,0.314846 0.11742,0.04637 0.213486,0.228895 0.213486,0.405587 0,0.176696 0.07372,0.397147 0.163835,0.489895 0.172037,0.177075 0.32856,0.893302 0.568216,2.600107 0.301395,2.146488 1.119866,3.58393 2.251103,3.953484 0.159703,0.05217 0.290361,0.156335 0.290361,0.231479 0,0.07514 0.120254,0.136622 0.267226,0.136622 0.146975,0 0.346965,0.09888 0.444413,0.219738 0.09745,0.12086 0.271537,0.219739 0.386864,0.219739 0.115323,0 0.379683,0.09037 0.58746,0.200826 0.207779,0.110464 0.73004,0.305055 1.160576,0.432441 0.430543,0.127395 1.135057,0.336205 1.5656,0.464023 0.430536,0.127818 1.519334,0.299016 2.419554,0.380449 0.900219,0.08145 2.294125,0.207405 3.097574,0.279972 0.803447,0.07254 1.53999,0.183438 1.63676,0.246411 0.09676,0.063 0.653164,0.155504 1.23643,0.205634 0.596735,0.0513 1.084281,0.16461 1.114893,0.25915 0.02993,0.0924 0.325038,0.16799 0.655811,0.16799 0.330779,0 0.725733,0.0968 0.877684,0.21509 0.151949,0.11829 0.48644,0.21718 0.743308,0.21974 0.280556,0.003 0.499735,0.0924 0.548949,0.2244 0.04554,0.12215 0.257035,0.21974 0.476248,0.21974 0.216885,0 0.474065,0.0989 0.571512,0.21975 0.09745,0.12085 0.289588,0.21973 0.426977,0.21973 0.13739,0 0.329535,0.0989 0.426985,0.21975 0.09745,0.12085 0.29743,0.21974 0.444404,0.21974 0.146975,0 0.267226,0.0647 0.267226,0.1437 0,0.079 0.1755,0.18904 0.389994,0.24445 0.214494,0.0554 0.475253,0.18852 0.579472,0.29578 0.104209,0.10727 0.305157,0.19503 0.446541,0.19503 0.141384,0 0.336792,0.0989 0.434246,0.21975 0.09745,0.12085 0.354627,0.21973 0.571505,0.21973 0.21688,0 0.428284,0.0911 0.469787,0.20241 0.04153,0.11131 0.288531,0.2349 0.54895,0.27462 0.260421,0.0398 0.665637,0.14106 0.900475,0.2252 1.052839,0.37723 3.50002,0.81279 5.550746,0.98797 0.626242,0.0535 1.500121,0.1895 1.941959,0.30224 0.441846,0.11274 1.018261,0.20708 1.280936,0.20964 0.262682,0.003 0.601932,0.10144 0.753892,0.21974 0.151942,0.1183 0.483612,0.21509 0.737042,0.21509 0.25342,0 0.55685,0.0989 0.67426,0.21974 0.11743,0.12085 0.37035,0.21975 0.56206,0.21975 0.1917,0 0.42828,0.0989 0.52573,0.21973 0.0975,0.12086 0.28959,0.21975 0.42698,0.21975 0.13739,0 0.32953,0.0989 0.42698,0.21974 0.0975,0.12086 0.26742,0.21974 0.37771,0.21974 0.1103,0 0.2374,0.0989 0.28246,0.21974 0.0451,0.12085 0.20532,0.21974 0.35614,0.21974 0.15082,0 0.46205,0.19776 0.69161,0.43948 0.22957,0.24172 0.45649,0.43948 0.50429,0.43948 0.19344,0 0.91898,0.87349 0.91898,1.10637 0,0.26306 -1.96194,0.19694 -2.13393,-0.0719 -0.0397,-0.062 -2.05078,-0.15027 -4.469122,-0.19613 -2.558134,-0.0485 -4.433088,-0.14217 -4.483299,-0.22395 -0.04748,-0.0773 -0.959045,-0.16642 -2.025724,-0.19803 -1.096035,-0.0325 -2.024427,-0.12683 -2.134909,-0.217 -0.107516,-0.0877 -0.665338,-0.19812 -1.239608,-0.24524 -0.574276,-0.0472 -1.118674,-0.14661 -1.209785,-0.22109 -0.0911,-0.0745 -0.5152,-0.16837 -0.942425,-0.20863 -0.427234,-0.0403 -0.800836,-0.14747 -0.830239,-0.23828 -0.02944,-0.0908 -0.296471,-0.16507 -0.59348,-0.16507 -0.306386,0 -0.616678,-0.0951 -0.717201,-0.21973 -0.09745,-0.12086 -0.38566,-0.21974 -0.640469,-0.21974 -0.254815,0 -0.536395,-0.0907 -0.625738,-0.20147 -0.08935,-0.1108 -0.41742,-0.24342 -0.729057,-0.29472 -0.311639,-0.0513 -0.56662,-0.1584 -0.56662,-0.23802 0,-0.0797 -0.187565,-0.14476 -0.416813,-0.14476 -0.229247,0 -0.512885,-0.0989 -0.630304,-0.21974 -0.117425,-0.12086 -0.362173,-0.22016 -0.543891,-0.22064 -0.181727,-5e-4 -0.497636,-0.0907 -0.702034,-0.20051 -0.20439,-0.10978 -0.796157,-0.24639 -1.315028,-0.30358 -0.518868,-0.0572 -0.979872,-0.16474 -1.024456,-0.23899 -0.161058,-0.26822 -1.042536,-0.15038 -1.204451,0.16102 -0.204935,0.39414 -0.06834,0.58296 0.421726,0.58296 0.227243,0 0.439126,0.0959 0.48528,0.21974 0.04506,0.12085 0.244049,0.21974 0.442206,0.21974 0.198159,0 0.360287,0.0647 0.360287,0.14371 0,0.079 0.175493,0.18903 0.389987,0.24444 0.214494,0.0554 0.47526,0.18851 0.579473,0.29578 0.10422,0.10727 0.306151,0.19504 0.448745,0.19504 0.142592,0 0.296125,0.0989 0.341187,0.21974 0.04506,0.12085 0.214036,0.21973 0.37551,0.21973 0.161471,0 0.330454,0.0989 0.375508,0.21974 0.04506,0.12086 0.235191,0.21975 0.422513,0.21975 0.207869,0 0.340593,0.0856 0.340593,0.21974 0,0.12086 0.09607,0.21973 0.213492,0.21973 0.310554,0 0.782794,0.53677 0.782794,0.88974 0,0.41083 -4.273339,0.15021 -4.542244,-0.27702 -0.04589,-0.0729 -0.432927,-0.16625 -0.86016,-0.20752 -0.427227,-0.0412 -0.800836,-0.14933 -0.83024,-0.24011 -0.02944,-0.0908 -0.267709,-0.16509 -0.529574,-0.16509 -0.261862,0 -0.563937,-0.0904 -0.671282,-0.20087 -0.14602,-0.1503 -0.843955,-0.21663 -2.771989,-0.26347 -1.548173,-0.0376 -2.653259,-0.12608 -2.768288,-0.22163 -0.1053,-0.0875 -0.795999,-0.18756 -1.534875,-0.22244 -0.858661,-0.0406 -1.363683,-0.12597 -1.399554,-0.23673 -0.03171,-0.0979 -0.325009,-0.17329 -0.674564,-0.17329 -0.359962,0 -0.70768,-0.0919 -0.831933,-0.21975 -0.117425,-0.12086 -0.370341,-0.21974 -0.562052,-0.21974 -0.191704,0 -0.42165,-0.0907 -0.510993,-0.20146 -0.08934,-0.1108 -0.41742,-0.24342 -0.729064,-0.29472 -0.31164,-0.0513 -0.56662,-0.1584 -0.56662,-0.23803 0,-0.0796 -0.122899,-0.14475 -0.273115,-0.14475 -0.150221,0 -0.454445,-0.0958 -0.676059,-0.213 -1.005061,-0.53128 -2.29412,-1.10546 -2.481833,-1.10546 -0.113385,0 -0.337378,-0.0946 -0.497758,-0.21022 -0.458783,-0.33076 -1.386916,-0.36031 -1.449478,-0.0462 -0.02859,0.14354 0.03354,0.25636 0.141156,0.25636 0.105716,0 0.402575,0.19777 0.65969,0.43949 0.257118,0.24171 0.559602,0.43948 0.672192,0.43948 0.112587,0 0.204706,0.0647 0.204706,0.1437 0,0.079 0.160117,0.18507 0.355817,0.23563 0.1957,0.0506 0.355816,0.18366 0.355816,0.29578 0,0.11212 0.128096,0.20386 0.284654,0.20386 0.156559,0 0.284653,0.0647 0.284653,0.1437 0,0.079 0.160118,0.18507 0.355815,0.23562 0.195701,0.0506 0.355818,0.18367 0.355818,0.29578 0,0.11213 0.120252,0.20386 0.267232,0.20386 0.146975,0 0.346958,0.0989 0.444406,0.21975 0.09745,0.12086 0.265411,0.21974 0.373246,0.21974 0.107831,0 0.196065,0.0989 0.196065,0.21973 0,0.14651 0.142324,0.21975 0.426977,0.21975 0.284653,0 0.426983,0.0733 0.426983,0.21974 0,0.13411 0.132726,0.21974 0.340585,0.21974 0.187323,0 0.377459,0.0989 0.422513,0.21974 0.04506,0.12085 0.20518,0.21975 0.355817,0.21975 0.150643,0 0.310761,0.0989 0.355821,0.21973 0.04506,0.12086 0.172537,0.21975 0.283281,0.21975 0.211122,0 0.417428,0.54642 0.287811,0.7623 -0.08614,0.14345 -2.612481,-0.0136 -2.828627,-0.17576 -0.07828,-0.0588 -0.555826,-0.14925 -1.061222,-0.20111 -0.505391,-0.0518 -0.982543,-0.15978 -1.060338,-0.23985 -0.07779,-0.0801 -0.380243,-0.14558 -0.672119,-0.14558 -0.291868,0 -0.626743,-0.0989 -0.744163,-0.21975 -0.117419,-0.12085 -0.344187,-0.21973 -0.503927,-0.21973 -0.352979,0 -1.437818,-0.56382 -1.437818,-0.74727 0,-0.0724 -0.160118,-0.1317 -0.355817,-0.1317 -0.221397,0 -0.355817,-0.083 -0.355817,-0.21975 0,-0.12085 -0.09607,-0.21973 -0.213491,-0.21973 -0.117418,0 -0.213489,-0.0918 -0.213489,-0.20386 0,-0.11213 -0.172885,-0.24853 -0.384192,-0.30311 -0.211304,-0.0545 -0.528481,-0.2595 -0.704838,-0.45537 -0.176356,-0.19586 -0.389762,-0.35611 -0.474236,-0.35611 -0.08448,0 -0.190456,-0.0989 -0.235515,-0.21974 -0.05513,-0.14787 -0.280754,-0.21975 -0.68974,-0.21975 -0.366648,0 -0.678117,0.0872 -0.784997,0.21975 -0.09745,0.12086 -0.313446,0.22184 -0.47999,0.22439 -0.166544,0.003 -0.427131,0.10147 -0.579083,0.21975 -0.151951,0.11829 -0.41683,0.21509 -0.58862,0.21509 -0.171789,0 -0.495796,0.0985 -0.720014,0.21882 -0.224216,0.12037 -0.738577,0.21926 -1.143023,0.21976 -0.451012,5.5e-4 -0.757712,0.0699 -0.793172,0.17942 -0.03805,0.1175 -0.613973,0.21597 -1.684203,0.28799 -0.894509,0.0602 -2.074711,0.17422 -2.622671,0.25341 -0.547957,0.0792 -1.140393,0.14737 -1.316523,0.15151 -0.186521,0.005 -0.320235,0.0993 -0.320235,0.22727 0,0.13836 -0.135549,0.21974 -0.365983,0.21974 -0.201291,0 -0.462053,0.0989 -0.579474,0.21974 -0.11742,0.12085 -0.330157,0.21975 -0.47275,0.21975 -0.142593,0 -0.296127,0.0989 -0.341184,0.21973 -0.04506,0.12086 -0.172163,0.21975 -0.282454,0.21975 -0.110295,0 -0.280263,0.0989 -0.377711,0.21974 -0.09745,0.12086 -0.324121,0.21974 -0.503711,0.21974 -0.179592,0 -0.353179,0.0824 -0.385753,0.18312 -0.04464,0.13803 -0.91487,0.19503 -3.534449,0.23148 -1.911376,0.0266 -3.536073,0.10901 -3.610438,0.18312 -0.07437,0.0742 -0.428305,0.13475 -0.786532,0.13475 -0.698586,0 -2.901719,0.25387 -3.312482,0.38171 -0.13699,0.0427 -0.249071,0.007 -0.249071,-0.0788 z M 50.4252,97.42688 c 0.30391,-0.312813 0.552563,-0.610769 0.552563,-0.66214 0,-0.05134 0.162142,-0.357764 0.360316,-0.68088 0.781104,-1.27358 0.945221,-4.933578 0.241905,-5.394741 -0.07671,-0.05031 -0.184638,-0.305702 -0.239831,-0.567567 -0.05519,-0.261855 -0.152369,-0.4761 -0.215942,-0.4761 -0.06357,0 -0.155775,-0.16481 -0.204893,-0.366236 -0.04912,-0.201433 -0.152133,-0.366236 -0.228921,-0.366236 -0.07679,0 -0.139614,-0.133914 -0.139614,-0.297583 0,-0.163677 -0.09608,-0.335534 -0.213491,-0.381909 -0.11742,-0.04637 -0.213491,-0.178228 -0.213491,-0.292994 0,-0.114765 -0.09607,-0.246606 -0.21349,-0.292987 -0.11742,-0.04637 -0.21349,-0.211185 -0.21349,-0.366237 0,-0.155052 -0.09607,-0.319854 -0.21349,-0.366235 -0.11742,-0.04637 -0.213489,-0.143189 -0.213489,-0.215145 0,-0.07194 -0.10017,-0.246184 -0.222595,-0.38718 -0.569535,-0.655943 -1.054009,-1.291236 -1.056074,-1.384835 -0.0078,-0.349764 -1.77465,-2.003647 -1.948942,-1.82425 -0.108303,0.111476 0.277727,1.157977 0.536216,1.453624 0.124469,0.14236 0.316611,0.439009 0.426982,0.659224 0.110373,0.220209 0.30251,0.516867 0.42698,0.659225 0.124469,0.142358 0.31661,0.439008 0.42698,0.659224 0.204137,0.407297 0.345253,0.616021 0.663236,0.980986 0.09785,0.112308 0.177908,0.260129 0.177908,0.328498 0,0.06834 0.192141,0.340842 0.426981,0.605485 0.23484,0.264647 0.426981,0.567054 0.426981,0.67202 0,0.104962 0.191118,0.414028 0.424706,0.686809 0.279892,0.32684 0.425482,0.655346 0.426981,0.963412 0.0012,0.257103 0.05788,0.502831 0.12584,0.546068 0.254873,0.162129 0.311984,1.488281 0.09177,2.130741 -0.118428,0.345492 -0.215327,0.982458 -0.215327,1.415474 0,0.433009 -0.06114,0.787299 -0.135877,0.787299 -0.07473,0 -0.180635,0.245556 -0.235337,0.545673 -0.0547,0.300127 -0.185697,0.634446 -0.291102,0.742935 -0.281142,0.289382 -0.235918,1.055303 0.06231,1.055303 0.0353,0 0.31284,-0.25594 0.616751,-0.568745 z m 6.855891,-1.733015 c 0.220461,-1.363521 0.08235,-2.932536 -0.270397,-3.07186 -0.108641,-0.04292 -0.19753,-0.161774 -0.19753,-0.264151 0,-0.102364 -0.09607,-0.268194 -0.213491,-0.368495 -0.11742,-0.100305 -0.213488,-0.306145 -0.213488,-0.457424 0,-0.151279 -0.09607,-0.27505 -0.213492,-0.27505 -0.117419,0 -0.213489,-0.09889 -0.213489,-0.219738 0,-0.120861 -0.09607,-0.219746 -0.213491,-0.219746 -0.117419,0 -0.213491,-0.09888 -0.213491,-0.219739 0,-0.122076 -0.126513,-0.219739 -0.284653,-0.219739 -0.15656,0 -0.284656,-0.06593 -0.284656,-0.146498 0,-0.08057 -0.07189,-0.146497 -0.159752,-0.146497 -0.107651,0 -0.114055,0.0597 -0.01962,0.183122 0.07707,0.100721 0.182203,0.364405 0.233629,0.585975 0.05142,0.221578 0.151237,0.40286 0.221806,0.40286 0.07057,0 0.170509,0.197766 0.222088,0.439487 0.05158,0.241711 0.152739,0.439476 0.224798,0.439476 0.07206,0 0.131019,0.160097 0.131019,0.355775 0,0.195677 0.09607,0.454652 0.21349,0.575513 0.11742,0.12086 0.21349,0.457245 0.21349,0.74753 0,0.334013 0.07839,0.558756 0.21349,0.612117 0.162517,0.06419 0.21349,0.337089 0.21349,1.142941 0,1.594269 0.360695,1.66765 0.610255,0.124141 z m -9.292192,-14.02912 c 0,-0.190149 -0.09097,-0.532351 -0.202161,-0.760452 -0.111195,-0.2281 -0.310999,-0.711383 -0.44402,-1.073958 -0.133021,-0.362572 -0.294717,-0.791063 -0.359324,-0.952209 -0.06461,-0.161141 -0.489257,-1.479595 -0.943667,-2.929883 -0.72569,-2.316108 -0.865159,-2.642589 -1.146437,-2.683712 -0.398356,-0.05825 -0.483403,2.371764 -0.10674,3.049948 0.11187,0.201428 0.205673,0.613444 0.208448,0.915588 0.0028,0.302142 0.06909,0.549349 0.147368,0.549349 0.07828,0 0.142328,0.08182 0.142328,0.181823 0,0.242964 1.003371,2.330328 1.237969,2.575409 0.101914,0.10647 0.185299,0.287755 0.185299,0.402859 0,0.115105 0.06606,0.209277 0.146794,0.209277 0.08074,0 0.189706,0.115367 0.242151,0.256363 0.253939,0.682718 0.891998,0.868404 0.891998,0.259598 z m 62.007261,-4.080909 c 0.17263,-0.178319 -0.62262,-0.829878 -1.01289,-0.829878 -0.18296,0 -0.36952,-0.09888 -0.41459,-0.21974 -0.0451,-0.120861 -0.24404,-0.219739 -0.4422,-0.219739 -0.19816,0 -0.36029,-0.06934 -0.36029,-0.154119 0,-0.08476 -0.19213,-0.223056 -0.42697,-0.307319 -0.23484,-0.08425 -0.42699,-0.212678 -0.42699,-0.285367 0,-0.07269 -0.12809,-0.132164 -0.28465,-0.132164 -0.15657,0 -0.28466,-0.05887 -0.28466,-0.130818 0,-0.20341 -0.41364,-0.317692 -0.7941,-0.219401 -0.41669,0.10764 -0.53747,1.37568 -0.13102,1.37568 0.11742,0 0.21349,0.09889 0.21349,0.219745 0,0.120853 0.0961,0.219739 0.21349,0.219739 0.11743,0 0.21349,0.06296 0.21349,0.139857 0,0.07692 0.22189,0.1827 0.49307,0.235065 0.2712,0.05238 0.57215,0.193265 0.66878,0.313116 0.19251,0.23875 2.54422,0.234811 2.77604,-0.0048 z M 98.159121,75.289019 c 0.04833,-0.08057 0.340373,-0.146497 0.648875,-0.146497 1.150992,0 0.745682,-0.549315 -0.470962,-0.638285 -0.567532,-0.04153 -1.296579,-0.118829 -1.6201,-0.171823 -0.370085,-0.0606 -0.623919,-0.0369 -0.684453,0.06392 -0.05293,0.08814 -0.341264,0.160248 -0.640759,0.160248 -0.527667,0 -1.144373,0.53942 -0.901968,0.788928 0.149337,0.153706 3.574822,0.101003 3.669367,-0.05645 z M 92.8727,73.604335 c 0.11742,-0.12086 0.405632,-0.219739 0.640471,-0.219739 0.483012,0 0.874291,-0.327842 0.874291,-0.732541 0,-0.239405 -0.149766,-0.280079 -1.245359,-0.338263 -1.499682,-0.07965 -2.841113,-0.333654 -3.263379,-0.617936 -0.444293,-0.29911 -1.75364,-1.668534 -1.75364,-1.834097 0,-0.07674 -0.08007,-0.142316 -0.177911,-0.145722 -0.09785,-0.0035 -0.335023,-0.201179 -0.527051,-0.439486 -0.253337,-0.314388 -0.47372,-0.43328 -0.803151,-0.43328 -0.272271,0 -0.486806,-0.08796 -0.535937,-0.219738 -0.08483,-0.22752 -1.7929,-0.3253 -2.285282,-0.130825 -0.281676,0.111251 -0.292276,0.550319 -0.01893,0.783829 0.113418,0.09689 0.283245,0.418084 0.377397,0.713781 0.228053,0.716226 0.543243,1.19686 0.784866,1.19686 0.108427,0 0.197122,0.06593 0.197122,0.146499 0,0.08057 0.08101,0.14649 0.18002,0.14649 0.09901,0 0.419008,0.131847 0.711119,0.292987 0.292102,0.161148 0.691453,0.292987 0.887435,0.292987 0.195981,0 0.356333,0.06593 0.356333,0.146498 0,0.08057 0.081,0.146498 0.180013,0.146498 0.09901,0 0.419016,0.13184 0.711119,0.292989 0.292103,0.161138 0.620554,0.292987 0.729881,0.292987 0.109327,0 0.235646,0.09889 0.280702,0.219738 0.04506,0.12086 0.237201,0.219745 0.426984,0.219745 0.189776,0 0.381922,0.09888 0.426977,0.219739 0.06441,0.172701 0.354918,0.219739 1.357166,0.219739 0.943781,0 1.330733,-0.05715 1.488737,-0.219739 z M 44.288401,65.773131 c 0,-0.07714 0.5444,-0.696822 1.209778,-1.377073 0.665378,-0.680253 1.209777,-1.306043 1.209777,-1.390652 0,-0.08461 0.08481,-0.206556 0.188436,-0.270987 0.103635,-0.06441 0.343816,-0.347882 0.533726,-0.629883 0.189911,-0.282 0.377314,-0.545687 0.416454,-0.585975 0.18404,-0.18943 0.569307,-1.022606 0.569307,-1.231178 0,-0.128572 0.06283,-0.233767 0.139615,-0.233767 0.07679,0 0.178087,-0.157768 0.225106,-0.350591 0.08969,-0.367798 -0.278971,-0.967855 -0.594614,-0.967855 -0.09164,0 -0.203498,-0.09888 -0.248557,-0.219741 -0.04507,-0.12086 -0.205175,-0.219738 -0.355817,-0.219738 -0.15064,0 -0.310759,-0.09889 -0.355816,-0.219745 -0.05356,-0.143672 -0.27528,-0.21974 -0.640471,-0.21974 -0.344159,0 -0.587536,-0.07775 -0.634072,-0.202581 -0.07634,-0.204771 -0.519196,-0.264053 -3.529012,-0.472412 -1.831506,-0.126781 -2.55098,0.504013 -0.888778,0.779234 0.472488,0.07823 0.884844,0.36833 0.900162,0.633269 0.01114,0.191995 -0.843778,0.557111 -1.525328,0.651464 -0.410882,0.05687 -0.782932,0.163164 -0.82678,0.236185 -0.147834,0.246206 -3.163563,0.160131 -3.551298,-0.101363 -0.991976,-0.668994 -1.564228,-0.321174 -1.564228,0.950752 v 0.985188 l 0.943063,0.980281 c 0.518685,0.539152 1.01505,0.980274 1.103033,0.980274 0.08799,0 0.159972,0.06468 0.159972,0.143698 0,0.07904 0.155482,0.183875 0.345518,0.232965 0.190035,0.04906 0.380166,0.182195 0.422514,0.295781 0.04235,0.113583 0.232269,0.206519 0.422051,0.206519 0.189781,0 0.381922,0.09889 0.42698,0.219739 0.04506,0.120861 0.248626,0.219745 0.452375,0.219745 0.203747,0 0.46652,0.09889 0.58394,0.21974 0.117421,0.120859 0.43308,0.219745 0.701468,0.219745 0.268387,0 0.487979,0.06115 0.487979,0.135953 0,0.07477 0.352258,0.181249 0.782797,0.236621 0.430538,0.05535 0.782798,0.154617 0.782798,0.220548 0,0.126553 0.475807,0.227373 1.245359,0.263894 0.25441,0.01209 0.462563,-0.04119 0.462563,-0.11831 z m 10.248711,-0.633468 c 0.526988,-0.479732 0.99511,-1.207726 0.99511,-1.54753 0,-0.407033 -0.289744,-0.560518 -0.499845,-0.264773 -0.0946,0.133168 -0.303963,0.242121 -0.465243,0.242121 -0.210093,0 -0.319826,0.124606 -0.387017,0.439486 -0.05158,0.241713 -0.145796,0.439476 -0.209368,0.439476 -0.151533,0 -0.321683,0.705648 -0.213567,0.885708 0.133045,0.221571 0.394508,0.156372 0.77993,-0.194488 z M 25.471916,64.319306 c 0.02918,-0.09011 0.305922,-0.16385 0.614976,-0.16385 0.368183,0 0.590158,-0.07576 0.643837,-0.219739 0.05353,-0.143588 0.275174,-0.219746 0.639526,-0.219746 0.480806,0 1.086931,-0.60383 0.803611,-0.800571 -0.02176,-0.01513 -0.327775,-0.17765 -0.680034,-0.361186 -0.352258,-0.183544 -0.691689,-0.425726 -0.754288,-0.538183 -0.159067,-0.285774 -0.578707,-0.254851 -1.201114,0.0885 -0.292107,0.161147 -0.61211,0.292987 -0.711118,0.292987 -0.09901,0 -0.180017,0.06593 -0.180017,0.146497 0,0.08123 -0.376738,0.146498 -0.845562,0.146498 -0.465058,0 -0.885145,-0.06593 -0.933523,-0.146498 -0.111184,-0.18516 -1.20978,-0.193991 -1.20978,-0.0098 0,0.07522 -0.175582,0.157622 -0.39018,0.183115 -0.421816,0.0501 -0.65917,0.559087 -0.260726,0.559087 0.12316,0 0.223927,0.06067 0.223927,0.134855 0,0.07417 0.204525,0.181089 0.454499,0.237601 0.249975,0.05652 0.542762,0.19359 0.650637,0.304624 0.107877,0.111038 0.344829,0.201884 0.526561,0.201884 0.181733,0 0.370557,0.107651 0.41961,0.239218 0.105581,0.283189 2.095221,0.214688 2.189158,-0.07538 z m 36.653075,-0.445311 c 0.08444,-0.08691 0.494991,-0.158024 0.912329,-0.158024 0.521605,0 0.782867,-0.06454 0.835787,-0.206519 0.04236,-0.113584 0.232481,-0.246682 0.422518,-0.295779 0.190032,-0.04906 0.345513,-0.153925 0.345513,-0.232959 0,-0.07904 0.06406,-0.143704 0.142331,-0.143704 0.185505,0 0.637001,-0.467474 0.753626,-0.780285 0.05024,-0.134848 0.142337,-0.245177 0.204598,-0.245177 0.06226,0 0.271525,-0.263687 0.465046,-0.585975 0.193514,-0.322287 0.40078,-0.585974 0.460582,-0.585974 0.05977,0 0.108731,-0.09889 0.108731,-0.219746 0,-0.120854 0.09606,-0.219739 0.213492,-0.219739 0.117419,0 0.213485,-0.09183 0.213485,-0.204066 0,-0.112242 0.09607,-0.242019 0.213493,-0.288393 0.117418,-0.04637 0.213492,-0.185279 0.213492,-0.308661 0,-0.123389 0.0597,-0.224341 0.132739,-0.224341 0.073,0 0.177599,-0.145488 0.232433,-0.323316 0.0548,-0.177822 0.283313,-0.489149 0.507737,-0.691848 0.224418,-0.202691 0.408037,-0.424972 0.408037,-0.493965 0,-0.185042 1.232013,-1.420753 1.416503,-1.420753 0.08691,0 0.192671,-0.09294 0.235024,-0.20652 0.04236,-0.113591 0.232476,-0.246688 0.422514,-0.295779 0.190032,-0.04906 0.345519,-0.153927 0.345519,-0.232966 0,-0.08675 0.750812,-0.143704 1.894211,-0.143704 1.445167,0 1.959696,-0.051 2.17048,-0.215082 0.15195,-0.11829 0.397775,-0.217175 0.546269,-0.219739 0.689705,-0.01188 1.491045,-0.980558 1.334921,-1.613646 -0.07981,-0.323635 -0.193895,-0.588429 -0.253523,-0.588429 -0.05964,0 -0.141909,-0.13184 -0.182852,-0.292987 -0.07075,-0.278483 -0.194136,-0.292989 -2.492091,-0.292989 -2.017729,0 -2.431205,-0.03635 -2.499581,-0.219738 -0.05141,-0.137922 -0.269065,-0.219745 -0.584532,-0.219745 -0.566109,0 -1.071917,-0.414761 -1.071917,-0.878963 0,-0.258761 0.09561,-0.293251 0.818374,-0.295234 1.428569,-0.0042 1.182586,-0.555383 -0.426978,-0.957256 -0.215268,-0.05376 -0.391396,-0.149352 -0.391396,-0.212455 0,-0.06309 -0.144107,-0.153339 -0.320234,-0.200529 -0.409046,-0.109598 -1.387689,-1.036634 -1.387689,-1.314515 0,-0.332618 0.326813,-0.389379 2.242078,-0.389379 1.467579,0 1.838921,-0.04387 2.052102,-0.242447 0.315584,-0.293961 0.336204,-0.615724 0.04678,-0.730033 -0.117418,-0.04637 -0.213491,-0.147907 -0.213491,-0.225613 0,-0.0777 -0.09607,-0.240165 -0.213494,-0.361025 -0.488007,-0.502291 0.07252,-1.111174 0.736337,-0.799862 0.848337,0.397846 2.197687,0.08554 2.522068,-0.583722 0.113735,-0.234665 0.15566,-0.426666 0.09316,-0.426666 -0.191283,0 -0.298205,-0.885402 -0.142974,-1.183947 0.171673,-0.330164 0.632938,-0.355117 1.132376,-0.06122 0.46835,0.275574 1.201071,0.275574 1.42327,0 0.09745,-0.12086 0.325479,-0.219738 0.506728,-0.219738 0.226524,0 0.47038,-0.201857 0.780042,-0.645687 0.379837,-0.544397 0.543077,-0.657545 1.040719,-0.721374 2.069446,-0.265437 3.318293,-0.863609 3.580876,-1.715165 0.09361,-0.303574 1.076755,-0.873124 1.50718,-0.873124 0.159744,0 0.386512,-0.09889 0.503931,-0.219739 0.117419,-0.12086 0.337004,-0.219746 0.487974,-0.219746 0.230435,0 0.274487,-0.105795 0.274487,-0.659223 V 36.90756 l -0.533727,0.0028 c -1.259225,0.0069 -2.526876,0.297177 -3.095602,0.708978 -0.912022,0.660371 -1.856715,0.899562 -3.552856,0.899562 -1.654368,0 -1.857662,0.125504 -1.687483,1.041782 0.08362,0.450259 -0.193764,0.714091 -0.917903,0.873054 -0.292116,0.06412 -0.78731,0.185326 -1.100428,0.269335 -0.313125,0.084 -0.796676,0.154312 -1.074572,0.156233 -0.277895,0.002 -0.568195,0.06828 -0.645119,0.147451 -0.07693,0.07918 -0.618123,0.208683 -1.20266,0.287791 -0.584545,0.07911 -1.415066,0.207288 -1.845602,0.284833 -0.430537,0.07755 -1.413389,0.145807 -2.184108,0.151695 -1.702106,0.01299 -2.374666,0.321182 -3.322081,1.522305 -0.78415,0.994137 -0.653905,4.419022 0.204363,5.373624 0.181097,0.201427 0.366238,0.514558 0.411422,0.695847 0.04519,0.181284 0.134025,0.329612 0.197432,0.329612 1.264625,0 0.882425,2.48241 -0.616545,4.004573 -0.68064,0.691163 -1.23753,1.288457 -1.23753,1.327313 0,0.168603 -2.301749,2.420577 -2.560463,2.505089 -0.15734,0.05141 -0.28607,0.154935 -0.28607,0.230076 0,0.07514 -0.08184,0.136623 -0.181858,0.136623 -0.100024,0 -0.287661,0.115367 -0.416965,0.256363 -0.382046,0.416591 -0.659148,0.622599 -0.837459,0.622599 -0.199534,0 -1.397523,1.255593 -1.68086,1.761686 -0.45731,0.816839 -0.885214,3.290915 -0.61894,3.578609 0.156936,0.169564 3.885467,-0.0152 4.066467,-0.201467 z M 32.165539,61.989923 C 32.213169,61.6443 31.691255,60.9398 31.3841,60.935115 c -0.09133,-0.0013 -0.190105,-0.07681 -0.219508,-0.167607 -0.0934,-0.288401 -1.535857,-0.357248 -1.535857,-0.0733 0,0.131107 0.05658,0.238382 0.125727,0.238382 0.06914,0 0.159224,0.131842 0.200166,0.292988 0.04704,0.185112 0.19725,0.295274 0.407998,0.299193 0.191892,0.0035 0.484088,0.192912 0.687984,0.445815 0.434577,0.539034 1.041847,0.549571 1.114929,0.01935 z m 53.379459,-6.420981 c 0.263971,-0.111724 0.75576,-0.20314 1.092869,-0.20314 0.337102,0 0.697556,-0.08609 0.800995,-0.191311 0.103444,-0.105221 0.30016,-0.234997 0.437148,-0.288392 0.361463,-0.140879 0.305496,-0.474002 -0.128847,-0.766927 -0.418291,-0.282105 -1.935485,-0.239674 -2.228895,0.06234 -0.08488,0.08737 -0.381693,0.159281 -0.659589,0.159813 -0.716173,0.0014 -1.974763,0.937784 -1.819648,1.353843 0.09522,0.255402 1.808185,0.169128 2.505967,-0.12621 z M 57.843946,54.596711 c 0.247471,-0.18129 0.58847,-0.477939 0.757773,-0.659223 0.169305,-0.181292 0.348516,-0.329613 0.39825,-0.329613 0.04974,0 0.20607,-0.115366 0.347415,-0.256363 0.141344,-0.141004 0.55765,-0.516444 0.925127,-0.834308 0.367472,-0.317864 0.668132,-0.65691 0.668132,-0.753425 0,-0.0965 0.09607,-0.213422 0.213491,-0.259798 0.159281,-0.06289 0.213492,-0.324615 0.213492,-1.03067 0,-0.645873 -0.06779,-1.016118 -0.213492,-1.16609 -0.117418,-0.120853 -0.213491,-0.360743 -0.213491,-0.533076 0,-0.383624 -1.391702,-1.905005 -1.742623,-1.905005 -0.137475,0 -0.249954,-0.06468 -0.249954,-0.143705 0,-0.07903 -0.175494,-0.189037 -0.389988,-0.244451 -0.214495,-0.05542 -0.475259,-0.188511 -0.579474,-0.295779 -0.10422,-0.107268 -0.332785,-0.195027 -0.507932,-0.195027 -0.175146,0 -0.442772,-0.0968 -0.594723,-0.215088 -0.151951,-0.118289 -0.477108,-0.217177 -0.722569,-0.219739 -0.245461,-0.0028 -0.629744,-0.10314 -0.853961,-0.223499 -0.530114,-0.284572 -2.67249,-0.293568 -3.498302,-0.01471 -0.335426,0.113273 -0.994147,0.241474 -1.463825,0.284882 -0.469678,0.04339 -1.165606,0.124973 -1.546506,0.181256 -0.817034,0.120716 -2.978257,-0.159647 -3.553213,-0.460934 -0.221613,-0.116133 -0.498388,-0.211149 -0.615056,-0.211149 -0.116667,0 -0.308192,-0.09889 -0.425611,-0.219739 -0.117421,-0.120861 -0.369034,-0.21974 -0.559142,-0.21974 -0.190108,0 -0.345652,-0.06982 -0.345652,-0.155142 0,-0.08533 -0.06405,-0.114399 -0.142327,-0.06461 -0.07828,0.04983 -0.142326,0.218495 -0.142326,0.374882 0,0.156391 0.06405,0.28434 0.142326,0.28434 0.07828,0 0.142327,0.100947 0.142327,0.224342 0,0.123384 0.09608,0.262286 0.21349,0.308661 0.11742,0.04636 0.213491,0.160062 0.213491,0.252631 0,0.09257 0.180111,0.250366 0.400246,0.350661 0.220135,0.100293 0.526107,0.297672 0.679937,0.43862 0.303067,0.277683 0.939723,0.606673 1.837517,0.949525 0.31312,0.119574 0.793474,0.303401 1.067453,0.408513 0.273978,0.105109 0.882426,0.218896 1.352104,0.252859 0.469679,0.03393 0.914805,0.122119 0.989173,0.195899 0.07436,0.07379 0.401216,0.134155 0.726337,0.134155 2.030129,0 3.906401,0.954478 3.906401,1.987222 0,0.115608 0.06405,0.210188 0.142329,0.210188 0.07828,0 0.142323,0.100958 0.142323,0.224342 0,0.123382 0.09607,0.262285 0.213493,0.30866 0.11742,0.04637 0.213489,0.244145 0.213489,0.439486 0,0.195338 0.08851,0.390117 0.196705,0.432849 0.108191,0.04271 0.23704,0.337311 0.286336,0.65463 0.0493,0.317311 0.152922,0.576929 0.230276,0.576929 0.07735,0 0.140645,0.199838 0.140645,0.44408 0,0.259597 0.08868,0.479108 0.21349,0.528405 0.117419,0.04636 0.213489,0.17615 0.213489,0.288393 0,0.316323 0.667422,0.244899 1.17311,-0.125545 z m 43.521274,-1.876346 c 0.66332,-0.08526 1.26689,-0.217113 1.34126,-0.292987 0.0743,-0.07587 0.27467,-0.13795 0.44513,-0.13795 0.17046,0 0.38966,-0.09889 0.48711,-0.219747 0.0974,-0.120853 0.30213,-0.219738 0.45484,-0.219738 1.76227,0 -0.11056,-0.518165 -1.99962,-0.553241 l -2.181672,-0.04049 -0.57893,0.595892 c -0.618411,0.63651 -0.597792,0.813604 0.10674,0.916851 0.23484,0.03441 0.4927,0.07245 0.573042,0.08452 0.0804,0.01209 0.68878,-0.04782 1.35211,-0.133092 z M 81.008738,52.509167 c 0,-0.120861 0.09607,-0.219739 0.213492,-0.219739 0.138937,0 0.213485,-0.143242 0.213485,-0.410185 0,-0.2256 0.08007,-0.497532 0.177912,-0.604287 0.14233,-0.155288 0.14233,-0.207536 0,-0.261249 -0.09785,-0.0369 -0.177912,-0.244768 -0.177912,-0.461861 0,-0.621106 -0.440797,-0.899312 -1.424893,-0.899312 -0.473338,0 -0.85233,0.06516 -0.85233,0.14649 0,0.08057 -0.115747,0.146497 -0.257221,0.146497 -0.141467,0 -0.459096,0.172141 -0.70584,0.382544 l -0.448635,0.382544 0.385615,0.785488 c 0.212081,0.432022 0.438219,0.787256 0.502518,0.789414 0.06434,0.002 0.212981,0.102791 0.3304,0.223656 0.145489,0.149752 0.504925,0.219739 1.128451,0.219739 0.718409,0 0.914958,-0.04719 0.914958,-0.219739 z m 9.202039,-1.318447 c 0.28102,-0.120861 0.651008,-0.21974 0.822181,-0.21974 0.171181,0 0.435561,-0.0968 0.58751,-0.215081 0.151949,-0.118297 0.445551,-0.217182 0.652444,-0.219746 0.2069,-0.0028 0.413039,-0.103545 0.458101,-0.224397 0.04506,-0.12086 0.244049,-0.219745 0.442208,-0.219745 0.225364,0 0.360279,-0.08228 0.360279,-0.21974 0,-0.120859 0.0698,-0.219737 0.155093,-0.219737 0.162648,0 0.685981,-0.579853 0.694135,-0.769098 0.0028,-0.06047 -0.219428,-0.109867 -0.493411,-0.109867 -0.273978,0 -0.49814,0.0588 -0.49814,0.130617 0,0.07183 -0.175492,0.175941 -0.389974,0.231354 -0.214486,0.05542 -0.436416,0.177919 -0.493183,0.272243 -0.07365,0.122387 -1.016456,0.173558 -3.292077,0.178679 -2.80639,0.0062 -3.217909,0.03704 -3.430973,0.256363 -0.13316,0.137058 -0.301578,0.24919 -0.374266,0.24919 -0.182824,0 -0.165473,0.496944 0.03303,0.945322 l 0.165174,0.373126 h 2.045462 c 1.496222,0 2.182671,-0.05902 2.556426,-0.219739 z m 5.315299,-0.512727 c 0,-0.08057 0.123521,-0.146497 0.27449,-0.146497 0.150969,0 0.370555,-0.09889 0.487974,-0.21974 0.117426,-0.12086 0.259632,-0.219745 0.316027,-0.219745 0.234714,0 1.07236,-1.050281 1.024849,-1.284996 -0.08973,-0.443298 -0.665533,-0.216836 -1.405397,0.552744 -0.387188,0.402743 -0.7592,0.732252 -0.826695,0.732252 -0.06751,0 -0.153324,0.164809 -0.190735,0.366237 -0.04561,0.245582 -0.0042,0.366236 0.125739,0.366236 0.10656,0 0.193748,-0.06593 0.193748,-0.146491 z M 40.987304,47.067154 c 0.09526,-0.687888 -0.569186,-1.07406 -1.900304,-1.104444 -0.661818,-0.01513 -1.379437,-0.03158 -1.594707,-0.03662 -0.300884,-0.0071 -0.401916,0.0671 -0.43688,0.320455 -0.03782,0.274115 0.02208,0.330392 0.355818,0.334269 0.220714,0.0028 0.525622,0.101453 0.677572,0.21974 0.151952,0.118297 0.440163,0.21806 0.640472,0.221694 0.200307,0.0035 0.556336,0.09876 0.791176,0.211398 0.647927,0.310769 1.412781,0.223955 1.466853,-0.166489 z m 11.047744,-2.918619 c 0.543865,-0.559793 0.319508,-0.648763 -1.635949,-0.648763 -1.847679,0 -2.4102,0.118021 -2.4102,0.505678 0,0.439562 3.633272,0.568051 4.046149,0.143085 z m 6.913018,-0.647345 c 0.224127,-0.147604 -0.363028,-0.880379 -0.705421,-0.880379 -0.0817,0 -0.14854,-0.06936 -0.14854,-0.15412 0,-0.08476 -0.192141,-0.223057 -0.42698,-0.307327 -0.234838,-0.08426 -0.42698,-0.207438 -0.42698,-0.273729 0,-0.06627 -0.192142,-0.163958 -0.426981,-0.217052 -0.23484,-0.05307 -0.426979,-0.148528 -0.426979,-0.212087 0,-0.06357 -0.26542,-0.152205 -0.589821,-0.196991 -0.324401,-0.04477 -0.629266,-0.147126 -0.677479,-0.227416 -0.04821,-0.08029 -0.263146,-0.191324 -0.477632,-0.24673 -0.214484,-0.05542 -0.389972,-0.159524 -0.389972,-0.231355 0,-0.07184 -0.08006,-0.131027 -0.177909,-0.131517 -0.09785,-4.97e-4 -0.34951,-0.09305 -0.559246,-0.205683 -0.422684,-0.226974 -0.543787,-0.17342 -0.543787,0.240511 0,0.265817 1.317483,1.724003 1.557655,1.724003 0.06347,0 0.195145,0.09889 0.292596,0.219746 0.09745,0.12086 0.269983,0.219747 0.383409,0.219747 0.113426,0 0.3023,0.09888 0.419718,0.219738 0.11742,0.12086 0.39572,0.219739 0.618446,0.219739 0.222724,0 0.431081,0.08069 0.463016,0.179286 0.03212,0.09917 0.434919,0.220472 0.901402,0.271456 0.463839,0.05073 0.907389,0.100845 0.985669,0.111454 0.07828,0.01069 0.238398,-0.04395 0.355816,-0.121294 z m 3.273523,-2.41858 c 0,-0.120853 0.09606,-0.219741 0.213486,-0.219741 0.32025,0 0.267968,-0.765848 -0.07279,-1.06614 -0.157457,-0.138763 -0.333585,-0.252706 -0.391403,-0.253205 -0.05784,-4.97e-4 -0.271193,-0.0901 -0.474175,-0.199125 -0.202982,-0.109012 -0.61602,-0.245901 -0.917855,-0.30419 -0.301838,-0.05825 -0.678404,-0.1994 -0.83681,-0.313607 -0.439102,-0.316565 -0.936305,-0.268504 -0.936305,0.09051 0,0.462752 0.665312,1.41958 1.149487,1.65316 0.393684,0.18992 0.773298,0.468052 0.885741,0.648961 0.170339,0.274054 1.380621,0.241948 1.380621,-0.03662 z m 9.801774,-2.109112 c 0.386021,-0.251706 -0.325887,-0.746734 -1.084252,-0.753948 -0.371827,-0.0035 -0.93224,-0.10143 -1.245357,-0.217535 -1.458133,-0.540693 -2.982118,0.140306 -1.743505,0.779096 0.593135,0.305895 3.675741,0.451501 4.073114,0.192387 z"
       id="path1" /></g></svg>
